<?xml version="1.0" encoding="utf-8"?>
<!-- Generator: Adobe Illustrator 25.4.1, SVG Export Plug-In . SVG Version: 6.00 Build 0)  -->
<svg version="1.1" id="Layer_1" xmlns="http://www.w3.org/2000/svg" xmlns:xlink="http://www.w3.org/1999/xlink" x="0px" y="0px"
	 viewBox="0 0 646 646" style="enable-background:new 0 0 646 646;" xml:space="preserve">
<style type="text/css">
	.st0{fill:#0366D6;}
	.st1{fill:#F7931E;}
</style>
<path class="st0" d="M357.5,347.4"/>
<path class="st1" d="M399.1,175.3c7.9,28,7,49.3-5.4,87.9c-20,62.4-24.8,72.8-33.9,101.3c-9.4,29.1-30.3,73.2,3.2,78
	s68.8-12.7,106.1-51.2c-34.6,47.6-92.4,100.5-133.5,106.4C276.7,506,235,468.4,264.8,373c20.3-64.8,24.2-75.5,32.5-100.7
	c9.6-29.2,31.7-73.8-1.8-78.5s-68.8,12.7-106.1,51.2c33.8-46.4,89.7-96.8,130.3-105.7S394.3,158.4,399.1,175.3z"/>
<polygon class="st1" points="334.3,29.2 334.3,89.5 386.5,119.7 438.7,89.5 438.7,29.2 386.5,-1 "/>
<path class="st1" d="M188.5,550.4c2.3,8.2,2.1,14.4-1.6,25.8c-5.9,18.3-7.3,21.3-9.9,29.7c-2.8,8.5-8.9,21.4,0.9,22.9
	s20.2-3.7,31.1-15c-10.1,13.9-27.1,29.4-39.1,31.2c-17.3,2.4-29.4-8.6-20.7-36.6c5.9-19,7.1-22.1,9.5-29.5c2.8-8.6,9.3-21.6-0.5-23
	c-9.8-1.4-20.2,3.7-31.1,15c9.9-13.6,26.3-28.4,38.2-31C177.2,537.2,187.1,545.5,188.5,550.4z"/>
<polygon class="st1" points="169.5,507.6 169.5,525.3 184.8,534.1 200.1,525.3 200.1,507.6 184.8,498.8 "/>
<g>
	<g>
		<path class="st1" d="M286.9,638.6c0,1.1-0.1,2-0.2,2.7c-0.1,0.7-0.3,1.4-0.6,1.9c-0.3,0.5-0.6,0.9-1,1.1c-0.4,0.2-0.8,0.4-1.4,0.4
			h-50.4c-1.4,0-2.6-0.4-3.8-1.3c-1.2-0.8-1.8-2.3-1.8-4.4v-97c0-0.4,0.1-0.8,0.4-1.1c0.2-0.3,0.6-0.6,1.2-0.8
			c0.6-0.2,1.4-0.4,2.4-0.5c1-0.1,2.2-0.2,3.6-0.2c1.5,0,2.7,0.1,3.7,0.2c1,0.1,1.7,0.3,2.3,0.5c0.6,0.2,1,0.4,1.2,0.8
			c0.2,0.3,0.4,0.7,0.4,1.1v90.6h40.9c0.5,0,1,0.1,1.4,0.4c0.4,0.2,0.7,0.6,1,1.1c0.3,0.5,0.5,1.1,0.6,1.8
			C286.9,636.6,286.9,637.5,286.9,638.6z"/>
		<path class="st1" d="M318.8,642.6c0,0.4-0.1,0.8-0.4,1.1c-0.2,0.3-0.6,0.6-1.2,0.8c-0.6,0.2-1.4,0.4-2.3,0.5
			c-1,0.1-2.2,0.2-3.7,0.2c-1.4,0-2.6-0.1-3.6-0.2c-1-0.1-1.8-0.3-2.4-0.5c-0.6-0.2-1-0.4-1.2-0.8c-0.2-0.3-0.4-0.7-0.4-1.1V542
			c0-0.4,0.1-0.8,0.4-1.1c0.3-0.3,0.7-0.6,1.3-0.8c0.6-0.2,1.4-0.4,2.4-0.5c1-0.1,2.1-0.2,3.5-0.2c1.5,0,2.7,0.1,3.7,0.2
			c1,0.1,1.7,0.3,2.3,0.5c0.6,0.2,1,0.4,1.2,0.8c0.2,0.3,0.4,0.7,0.4,1.1V642.6z"/>
		<path class="st1" d="M434.6,639.7c0.5,1.2,0.7,2.1,0.7,2.9c0,0.7-0.2,1.3-0.7,1.7c-0.5,0.4-1.2,0.6-2.3,0.7
			c-1.1,0.1-2.5,0.2-4.4,0.2c-1.8,0-3.3,0-4.4-0.1c-1.1-0.1-1.9-0.2-2.5-0.4c-0.6-0.2-1-0.4-1.2-0.8c-0.3-0.3-0.5-0.7-0.7-1.2
			l-9.8-25.5H362l-9.3,25.2c-0.2,0.5-0.4,0.9-0.7,1.3c-0.3,0.4-0.7,0.6-1.3,0.9c-0.6,0.2-1.4,0.4-2.4,0.5c-1,0.1-2.4,0.2-4,0.2
			c-1.7,0-3.1-0.1-4.2-0.2c-1.1-0.1-1.9-0.4-2.3-0.8c-0.4-0.4-0.6-0.9-0.6-1.7c0-0.7,0.3-1.7,0.7-2.9l38.3-97.3
			c0.2-0.6,0.5-1.1,0.9-1.5c0.4-0.4,0.9-0.7,1.7-0.9c0.7-0.2,1.7-0.4,2.8-0.4c1.1-0.1,2.6-0.1,4.4-0.1c1.9,0,3.4,0,4.7,0.1
			c1.2,0.1,2.2,0.2,3,0.4c0.8,0.2,1.4,0.5,1.8,0.9c0.4,0.4,0.7,0.9,1,1.5L434.6,639.7z M385.5,553.8L385.5,553.8L365.8,606h39.7
			L385.5,553.8z"/>
		<path class="st1" d="M541.4,590.7c0,9.1-1.3,17-3.8,23.8c-2.5,6.8-6.2,12.4-11.1,16.8c-4.9,4.5-10.8,7.8-17.9,10
			c-7.1,2.2-15.5,3.3-25.2,3.3h-24.2c-1.4,0-2.6-0.4-3.8-1.3c-1.2-0.8-1.8-2.3-1.8-4.4v-93.4c0-2.1,0.6-3.6,1.8-4.4
			c1.2-0.8,2.5-1.3,3.8-1.3h25.8c9.9,0,18.2,1.2,25,3.5c6.8,2.3,12.5,5.7,17.2,10.1c4.6,4.4,8.1,9.7,10.5,16
			C540.2,575.8,541.4,582.8,541.4,590.7z M525.5,591.3c0-5.7-0.8-10.9-2.3-15.8c-1.5-4.9-3.9-9.1-7.2-12.7
			c-3.3-3.6-7.4-6.3-12.4-8.3c-5-2-11.4-3-19.3-3h-15.4V633h15.6c7.3,0,13.4-0.8,18.4-2.5c5-1.7,9.2-4.2,12.5-7.7
			c3.4-3.5,5.9-7.8,7.5-13C524.6,604.6,525.5,598.4,525.5,591.3z"/>
	</g>
</g>
</svg>
