<?xml version="1.0" encoding="utf-8"?>
<!-- Generator: Adobe Illustrator 25.4.1, SVG Export Plug-In . SVG Version: 6.00 Build 0)  -->
<svg version="1.1" id="Layer_1" xmlns="http://www.w3.org/2000/svg" xmlns:xlink="http://www.w3.org/1999/xlink" x="0px" y="0px"
	 viewBox="0 0 1310.3 500" style="enable-background:new 0 0 1310.3 500;" xml:space="preserve">
<style type="text/css">
	.st0{fill:#F7931E;}
</style>
<path class="st0" d="M209.6,176.4c7.9,28,7,49.3-5.4,87.9c-20,62.4-24.8,72.8-33.9,101.3c-9.4,29.1-30.3,73.2,3.2,78
	s68.8-12.7,106.1-51.2C245,440,187.2,492.9,146.1,498.8C87.2,507.1,45.6,469.5,75.4,374c20.3-64.8,24.2-75.5,32.5-100.7
	c9.6-29.2,31.7-73.8-1.8-78.5C72.7,190.1,37.3,207.5,0,246c33.8-46.4,89.7-96.8,130.3-105.7S204.9,159.5,209.6,176.4z"/>
<polygon class="st0" points="144.8,30.3 144.8,90.6 197,120.7 249.3,90.6 249.3,30.3 197,0.1 "/>
<g>
	<g>
		<path class="st0" d="M512.6,479.2c0,3.7-0.2,6.8-0.6,9.3c-0.4,2.5-1,4.6-1.8,6.4c-0.8,1.8-1.8,3-3,3.9c-1.2,0.8-2.6,1.2-4.3,1.2
			H344.8c-4.2,0-8.2-1.4-12-4.3c-3.8-2.9-5.7-7.9-5.7-15.1V149.5c0-1.5,0.4-2.8,1.1-3.9c0.7-1.1,2-2,3.9-2.6
			c1.8-0.6,4.3-1.2,7.5-1.7c3.1-0.5,6.9-0.7,11.3-0.7c4.6,0,8.4,0.2,11.5,0.7c3,0.5,5.5,1,7.3,1.7c1.8,0.6,3.1,1.5,3.9,2.6
			c0.7,1.1,1.1,2.4,1.1,3.9v309.3h128.2c1.7,0,3.1,0.4,4.3,1.2c1.2,0.8,2.2,2,3,3.6c0.8,1.6,1.4,3.6,1.8,6.2
			C512.4,472.4,512.6,475.5,512.6,479.2z"/>
		<path class="st0" d="M612.6,492.7c0,1.5-0.4,2.8-1.1,3.9c-0.7,1.1-2,2-3.9,2.6c-1.8,0.6-4.3,1.2-7.3,1.7c-3,0.5-6.9,0.7-11.5,0.7
			c-4.4,0-8.2-0.2-11.3-0.7c-3.1-0.5-5.6-1-7.5-1.7c-1.8-0.6-3.1-1.5-3.9-2.6c-0.7-1.1-1.1-2.4-1.1-3.9V149.5c0-1.5,0.4-2.8,1.2-3.9
			c0.8-1.1,2.2-2,4.1-2.6c1.9-0.6,4.4-1.2,7.5-1.7c3-0.5,6.7-0.7,10.9-0.7c4.6,0,8.4,0.2,11.5,0.7c3,0.5,5.5,1,7.3,1.7
			c1.8,0.6,3.1,1.5,3.9,2.6c0.7,1.1,1.1,2.4,1.1,3.9V492.7z"/>
		<path class="st0" d="M975.5,483c1.5,4.1,2.3,7.3,2.3,9.8c0.1,2.5-0.6,4.4-2.1,5.7c-1.5,1.3-3.9,2.1-7.3,2.5
			c-3.4,0.4-8,0.6-13.7,0.6c-5.7,0-10.3-0.1-13.7-0.4c-3.4-0.3-6-0.7-7.7-1.4c-1.8-0.6-3-1.5-3.9-2.6c-0.8-1.1-1.6-2.5-2.3-4.1
			l-30.7-87.1H747.8l-29.3,86c-0.6,1.7-1.3,3.1-2.2,4.3c-0.9,1.2-2.3,2.2-4,3c-1.8,0.8-4.2,1.4-7.5,1.8c-3.2,0.4-7.4,0.6-12.6,0.6
			c-5.3,0-9.7-0.2-13.1-0.7c-3.4-0.5-5.8-1.3-7.2-2.6c-1.4-1.3-2-3.2-1.9-5.7c0.1-2.5,0.9-5.8,2.3-9.8l119.9-332.2
			c0.7-2,1.7-3.7,2.9-5c1.2-1.3,2.9-2.3,5.2-3c2.3-0.7,5.3-1.2,8.8-1.5c3.6-0.3,8.2-0.4,13.7-0.4c5.9,0,10.8,0.1,14.6,0.4
			s7,0.8,9.4,1.5c2.4,0.7,4.2,1.8,5.5,3.2c1.3,1.4,2.3,3.1,3,5.1L975.5,483z M821.6,189.8h-0.3l-61.6,178.3H884L821.6,189.8z"/>
		<path class="st0" d="M1310.2,315.8c0,31-4,58-11.9,81.1c-7.9,23.1-19.5,42.3-34.7,57.5c-15.2,15.2-33.9,26.6-56,34.1
			c-22.1,7.6-48.5,11.3-79,11.3h-75.7c-4.2,0-8.2-1.4-12-4.3c-3.8-2.9-5.7-7.9-5.7-15.1V161.6c0-7.2,1.9-12.2,5.7-15.1
			c3.8-2.9,7.8-4.3,12-4.3h81c31,0,57.1,4,78.5,12c21.4,8,39.3,19.5,53.8,34.5c14.5,15,25.4,33.2,32.9,54.6
			C1306.4,264.8,1310.2,288.9,1310.2,315.8z M1260.2,317.8c0-19.3-2.4-37.4-7.2-54c-4.8-16.7-12.3-31.1-22.5-43.3
			c-10.2-12.2-23.2-21.6-38.8-28.5c-15.7-6.8-35.8-10.2-60.5-10.2h-48.4v278.3h48.9c22.8,0,42.1-2.9,57.8-8.6
			c15.7-5.7,28.7-14.5,39.2-26.3c10.5-11.8,18.4-26.6,23.6-44.4C1257.5,363.2,1260.2,342.1,1260.2,317.8z"/>
	</g>
</g>
</svg>
