<?xml version="1.0" encoding="utf-8"?>
<!-- Generator: Adobe Illustrator 25.4.1, SVG Export Plug-In . SVG Version: 6.00 Build 0)  -->
<svg version="1.1" id="Layer_1" xmlns="http://www.w3.org/2000/svg" xmlns:xlink="http://www.w3.org/1999/xlink" x="0px" y="0px"
	 viewBox="0 0 279.6 499.7" style="enable-background:new 0 0 279.6 499.7;" xml:space="preserve">
<style type="text/css">
	.st0{fill:#0366D6;}
	.st1{fill:#F7931E;}
</style>
<path class="st0" d="M199.4,360.5"/>
<path class="st1" d="M209.6,176.3c7.9,28,7,49.3-5.4,87.9c-20,62.4-24.8,72.8-33.9,101.3c-9.4,29.1-30.3,73.2,3.2,78
	s68.8-12.7,106.1-51.2c-34.6,47.6-92.4,100.5-133.5,106.4C87.2,507,45.6,469.4,75.4,373.9c20.3-64.8,24.2-75.5,32.5-100.7
	c9.6-29.2,31.7-73.8-1.8-78.5C72.7,190,37.3,207.4,0,245.9c33.8-46.4,89.7-96.8,130.3-105.7S204.9,159.4,209.6,176.3z"/>
<polygon class="st1" points="144.8,30.2 144.8,90.5 197,120.6 249.3,90.5 249.3,30.2 197,0 "/>
</svg>
