<?xml version="1.0" encoding="utf-8"?>
<!-- Generator: Adobe Illustrator 25.4.1, SVG Export Plug-In . SVG Version: 6.00 Build 0)  -->
<svg version="1.1" id="Layer_1" xmlns="http://www.w3.org/2000/svg" xmlns:xlink="http://www.w3.org/1999/xlink" x="0px" y="0px"
	 viewBox="0 0 640.5 656.7" style="enable-background:new 0 0 640.5 656.7;" xml:space="preserve">
<style type="text/css">
	.st0{fill:none;stroke:#FFFFFF;stroke-width:8;stroke-linecap:round;stroke-miterlimit:10;}
	.st1{fill:#FFFFFF;}
	.st2{fill:#FFFFFF;stroke:#FFFFFF;stroke-width:8;stroke-miterlimit:10;}
</style>
<polygon points="509.7,383 308.8,499 107.8,383 107.8,151 308.8,35 509.7,151 "/>
<polyline class="st0" points="528.9,161.6 528.9,393.6 327.9,509.6 "/>
<polyline class="st0" points="547.7,172 547.7,404 346.8,520 "/>
<path class="st1" d="M342.6,261.5c19.1,0,35.4-1.5,48.9-4.5s24.5-7.4,32.9-13.1c8.5-5.7,14.6-12.7,18.5-21
	c3.8-8.2,5.7-17.6,5.7-28.1c0-13-3.1-23.6-9.4-31.9c-6.2-8.3-15.1-14.6-26.6-19c-7.2-2.7-15.4-4.5-24.7-5.6
	c-9.3-1.1-20.1-1.6-32.4-1.6h-46.8v122.8c5.4,0.6,11,1.1,16.9,1.5C331.6,261.4,337.3,261.5,342.6,261.5z"/>
<path class="st1" d="M308.8,35v65.1h51.5c13.8,0,26.5,0.8,38.3,2.5c11.7,1.7,22.5,4.2,32.3,7.7c19.9,7.2,35.1,17.8,45.4,32.1
	c10.3,14.2,15.5,31.7,15.5,52.5c0,17-3.4,31.9-10.1,44.8c-6.7,12.9-16.5,23.7-29.3,32.3c-12.8,8.7-28.4,15.2-46.7,19.6
	c-18.4,4.4-39.2,6.6-62.4,6.6c-11,0-22.5-0.5-34.3-1.5V499l200.9-116V151L308.8,35z"/>
<line class="st2" x1="267.8" y1="100.1" x2="267.8" y2="434"/>
<g>
	<path class="st1" d="M25.8,558.9h19.8c3.9,0,7.4,0.3,10.6,0.9c3.2,0.6,5.9,1.6,8.2,3c2.3,1.4,4,3.2,5.3,5.5s1.9,5.1,1.9,8.4
		c0,3.2-0.6,6-1.9,8.3c-1.2,2.3-3,4.3-5.2,5.8c-2.3,1.5-5,2.7-8.1,3.5s-6.6,1.2-10.4,1.2H34.6v24h-8.8V558.9L25.8,558.9z M45,589.1
		c6.1,0,10.6-1,13.5-3s4.4-5.1,4.4-9.4c0-4.4-1.5-7.4-4.6-9.1c-3.1-1.7-7.6-2.5-13.7-2.5h-9.9v24.1L45,589.1L45,589.1z"/>
	<path class="st1" d="M144.9,619.3l-16.7-25.5h-12.6v25.5h-8.8v-60.5h21.7c3.5,0,6.8,0.3,9.8,0.9c3,0.6,5.6,1.6,7.7,2.9
		c2.1,1.4,3.8,3.1,5,5.3s1.8,4.8,1.8,7.9c0,4.7-1.4,8.5-4.2,11.3s-6.6,4.8-11.3,5.8l17.6,26.4L144.9,619.3L144.9,619.3z
		 M115.6,587.5h11.6c5.4,0,9.6-1,12.5-2.9s4.3-4.9,4.3-8.8c0-4-1.4-6.8-4.3-8.4c-2.9-1.6-7-2.4-12.5-2.4h-11.6V587.5z"/>
	<path class="st1" d="M219.4,600.9h-25.3l-6.7,18.4h-9l23.5-60.5h9.9l23.5,60.5H226L219.4,600.9z M217.2,594.7l-3.3-9.2
		c-1.3-3.4-2.5-6.7-3.6-10.1c-1.1-3.3-2.3-6.8-3.4-10.3h-0.4c-1.1,3.5-2.2,6.9-3.3,10.3c-1.1,3.3-2.3,6.7-3.6,10.1l-3.3,9.2H217.2z"
		/>
	<path class="st1" d="M279,588.1l-18.8-29.2h9.7l9.4,15.5c0.9,1.4,1.8,2.8,2.6,4.1c0.8,1.3,1.7,2.9,2.8,4.7h0.4
		c1-1.8,1.9-3.3,2.6-4.7c0.7-1.3,1.5-2.7,2.4-4.1l9.2-15.5h9.3l-18.9,29.6l20.2,30.9h-9.7L290,603c-0.9-1.5-1.8-3-2.8-4.6
		s-2-3.3-3.1-5.1h-0.4c-1,1.8-1.9,3.5-2.9,5.1c-0.9,1.6-1.8,3.1-2.6,4.6l-10,16.3h-9.3L279,588.1z"/>
	<path class="st1" d="M342.2,558.9h8.8v60.5h-8.8V558.9z"/>
	<path class="st1" d="M391.1,558.9h9.1l25.1,38l7.5,12.5h0.4c-0.2-3.1-0.4-6.3-0.7-9.5c-0.2-3.3-0.4-6.5-0.4-9.7V559h8.4v60.5h-9.1
		l-25.2-38.1l-7.5-12.4h-0.4c0.3,3.1,0.5,6.2,0.8,9.4c0.2,3.2,0.4,6.3,0.4,9.5v31.6h-8.4L391.1,558.9L391.1,558.9z"/>
	<path class="st1" d="M506.3,620.4c-4.4,0-8.4-0.7-12-2.2s-6.8-3.6-9.4-6.3s-4.6-6.1-6.1-10c-1.4-3.9-2.2-8.3-2.2-13.1
		c0-4.9,0.7-9.2,2.2-13c1.4-3.8,3.5-7.1,6.1-9.8s5.7-4.7,9.4-6.1c3.6-1.4,7.6-2.1,12-2.1s8.4,0.7,12,2.2c3.6,1.4,6.8,3.5,9.4,6.2
		c2.6,2.7,4.7,5.9,6.1,9.8c1.4,3.8,2.2,8.2,2.2,12.9c0,4.9-0.7,9.2-2.2,13.1c-1.4,3.9-3.5,7.2-6.1,10c-2.6,2.7-5.8,4.8-9.4,6.3
		C514.6,619.7,510.6,620.4,506.3,620.4z M506.3,613.7c3.1,0,5.9-0.6,8.4-1.8s4.7-2.8,6.4-5c1.8-2.2,3.2-4.8,4.2-7.8
		s1.5-6.5,1.5-10.3c0-3.7-0.5-7.1-1.5-10.1s-2.4-5.6-4.2-7.6s-3.9-3.7-6.4-4.8s-5.3-1.7-8.4-1.7s-5.9,0.6-8.4,1.7
		c-2.5,1.1-4.7,2.8-6.5,4.8c-1.8,2.1-3.2,4.6-4.2,7.6s-1.5,6.4-1.5,10.1c0,3.8,0.5,7.2,1.5,10.3c1,3,2.4,5.7,4.2,7.8
		c1.8,2.2,3.9,3.9,6.5,5C500.4,613.1,503.2,613.7,506.3,613.7z"/>
	<path class="st1" d="M591.3,620.4c-4.9,0-9.4-0.8-13.5-2.4c-4.2-1.6-7.8-3.8-10.8-6.5l5.3-5.3c2.5,2.3,5.4,4.1,8.7,5.5
		s6.8,2.1,10.4,2.1c4.6,0,8.1-0.9,10.7-2.7c2.5-1.8,3.8-4.2,3.8-7.1c0-1.5-0.3-2.8-0.9-3.9c-0.6-1.1-1.4-2-2.4-2.8s-2.2-1.5-3.6-2.1
		c-1.4-0.6-2.9-1.3-4.5-1.9l-9.9-3.8c-1.6-0.6-3.3-1.4-5-2.2s-3.2-1.9-4.5-3.1c-1.3-1.2-2.4-2.7-3.3-4.4c-0.8-1.7-1.3-3.6-1.3-5.9
		c0-2.3,0.5-4.4,1.6-6.4s2.6-3.7,4.5-5.1c1.9-1.4,4.2-2.6,6.9-3.4s5.6-1.2,8.7-1.2c4.2,0,8,0.7,11.5,2.1c3.5,1.4,6.5,3.2,9,5.4
		l-4.8,5c-2.1-1.8-4.5-3.2-7-4.2c-2.6-1-5.5-1.5-8.7-1.5c-3.9,0-7,0.8-9.4,2.3c-2.4,1.6-3.5,3.7-3.5,6.5c0,1.5,0.3,2.7,1,3.7
		s1.6,1.9,2.7,2.7c1.1,0.8,2.4,1.4,3.7,2s2.7,1.1,4.1,1.6l9.8,3.7c2,0.7,3.8,1.6,5.6,2.5c1.8,1,3.3,2.1,4.5,3.3
		c1.3,1.3,2.3,2.7,3,4.4s1.1,3.6,1.1,5.9c0,2.4-0.5,4.6-1.6,6.7c-1.1,2.1-2.7,3.9-4.7,5.5s-4.5,2.8-7.4,3.7
		C598.2,620,594.9,620.4,591.3,620.4z"/>
</g>
</svg>
