<?xml version="1.0" encoding="utf-8"?>
<!-- Generator: Adobe Illustrator 25.4.1, SVG Export Plug-In . SVG Version: 6.00 Build 0)  -->
<svg version="1.1" id="Layer_1" xmlns="http://www.w3.org/2000/svg" xmlns:xlink="http://www.w3.org/1999/xlink" x="0px" y="0px"
	 viewBox="0 0 532.5 532.5" style="enable-background:new 0 0 532.5 532.5;" xml:space="preserve">
<style type="text/css">
	.st0{stroke:#FFFFFF;stroke-width:8;stroke-miterlimit:10;}
	.st1{fill:none;stroke:#FFFFFF;stroke-width:8;stroke-linecap:round;stroke-miterlimit:10;}
	.st2{fill:#FFFFFF;}
	.st3{fill:none;stroke:#FFFFFF;stroke-width:8;stroke-miterlimit:10;}
</style>
<polygon class="st0" points="462.8,380.5 245.8,505.9 28.6,380.5 28.6,129.9 245.8,4.6 462.8,129.9 "/>
<polyline class="st1" points="483.5,141.4 483.5,392 266.5,517.3 "/>
<polyline class="st1" points="503.9,152.6 503.9,403.2 286.9,528.5 "/>
<path class="st2" d="M282.4,249.3c20.6,0,38.2-1.6,52.8-4.9c14.6-3.2,26.5-8,35.5-14.1c8.6-5.6,15.6-13.4,20-22.7
	c4.1-8.9,6.2-19,6.2-30.4c0-14-3.4-25.5-10.2-34.5s-16.3-15.8-28.7-20.5c-8.6-3.1-17.6-5.1-26.7-6c-11.6-1.2-23.3-1.8-35-1.7h-50.6
	v132.6c5.8,0.6,11.9,1.2,18.2,1.6C270.1,249.1,276.5,249.3,282.4,249.3z"/>
<path class="st2" d="M245.8,4.6v70.3h55.6c13.8-0.1,27.7,0.8,41.4,2.7c11.9,1.7,23.6,4.4,34.9,8.4c21.5,7.8,37.9,19.2,49,34.7
	s16.8,34.2,16.8,56.7c0,18.4-3.7,34.5-10.9,48.4c-7.4,14.1-18.3,26.1-31.6,34.9c-13.8,9.4-30.7,16.4-50.5,21.2
	c-19.8,4.8-42.4,7.1-67.4,7.1c-11.9,0-24.3-0.5-37-1.6v218.5l217-125.3V129.9L245.8,4.6z"/>
<line class="st3" x1="201.4" y1="74.9" x2="201.4" y2="435.6"/>
</svg>
