<?xml version="1.0" encoding="utf-8"?>
<!-- Generator: Adobe Illustrator 25.4.1, SVG Export Plug-In . SVG Version: 6.00 Build 0)  -->
<svg version="1.1"
	 id="Layer_1" xmlns:inkscape="http://www.inkscape.org/namespaces/inkscape" xmlns:sodipodi="http://sodipodi.sourceforge.net/DTD/sodipodi-0.dtd" xmlns:svg="http://www.w3.org/2000/svg"
	 xmlns="http://www.w3.org/2000/svg" xmlns:xlink="http://www.w3.org/1999/xlink" x="0px" y="0px" viewBox="0 0 122.9 122.9"
	 style="enable-background:new 0 0 122.9 122.9;" xml:space="preserve">
<style type="text/css">
	.st0{fill:#B1B1B2;stroke:#000000;stroke-opacity:0;}
	.st1{fill-rule:evenodd;clip-rule:evenodd;fill:#FFFFFF;}
</style>
<sodipodi:namedview  bordercolor="#666666" borderopacity="1.0" id="namedview9" inkscape:current-layer="Layer_1" inkscape:cx="36.03125" inkscape:cy="90.84375" inkscape:pagecheckerboard="true" inkscape:pageopacity="0" inkscape:pageshadow="2" inkscape:window-height="1377" inkscape:window-maximized="1" inkscape:window-width="2560" inkscape:window-x="1432" inkscape:window-y="844" inkscape:zoom="16" pagecolor="#000000" showgrid="false">
	</sodipodi:namedview>
<path id="path1261" sodipodi:nodetypes="ccssccccc" class="st0" d="M14.6,91.7c4.3-0.2,5.8-0.6,8.9-0.9c2.7,0.1,5.3,1.1,8,1.1
	c3.3,0.1,4.6-1,7.9-1c2,0,7.1,1.5,7.1,1.5l-16.9,17.7c0.2-0.1-22.8,6.7-22.8,6.7l5.4-22.7C12.2,94.2,14.4,91.9,14.6,91.7z"/>
<g id="g6">
	<path id="path4" class="st1" d="M95.6,58l-4.2-4.2l7-7c6.2,0.2,12.5-2.1,17.2-6.8c9.1-9.1,9.1-24,0-33.1s-24-9.1-33.1,0
		c-4.8,4.8-7,11-6.8,17.2l-7,7l-4.5-4.5c-1.5-1.5-4-1.5-5.5,0l-2.2,2.2c-1.5,1.5-1.5,4,0,5.5l4.5,4.5L7.5,92.2l-7.1,30.6l29.8-7.9
		l53.5-53.5l4.2,4.2c1.5,1.5,4,1.5,5.5,0l2.2-2.2C97.1,62,97.1,59.5,95.6,58L95.6,58z M28.8,109L8,115l5.4-21.4l46.4-46.4l15.4,15.4
		L28.8,109L28.8,109z"/>
</g>
</svg>
