<?xml version="1.0" encoding="utf-8"?>
<!-- Generator: Adobe Illustrator 25.4.1, SVG Export Plug-In . SVG Version: 6.00 Build 0)  -->
<svg version="1.1"
	 id="Layer_1" xmlns:cc="http://creativecommons.org/ns#" xmlns:dc="http://purl.org/dc/elements/1.1/" xmlns:inkscape="http://www.inkscape.org/namespaces/inkscape" xmlns:rdf="http://www.w3.org/1999/02/22-rdf-syntax-ns#" xmlns:sodipodi="http://sodipodi.sourceforge.net/DTD/sodipodi-0.dtd" xmlns:svg="http://www.w3.org/2000/svg"
	 xmlns="http://www.w3.org/2000/svg" xmlns:xlink="http://www.w3.org/1999/xlink" x="0px" y="0px" viewBox="0 0 122.9 122.9"
	 style="enable-background:new 0 0 122.9 122.9;" xml:space="preserve">
<style type="text/css">
	.st0{fill-rule:evenodd;clip-rule:evenodd;fill:#999999;}
	.st1{fill:#FFFFFF;}
	.st2{fill-rule:evenodd;clip-rule:evenodd;fill:#B3B3B3;}
</style>
<sodipodi:namedview  bordercolor="#666666" borderopacity="1.0" id="namedview19" inkscape:current-layer="Layer_1" inkscape:cx="61.390154" inkscape:cy="56.355" inkscape:pagecheckerboard="true" inkscape:pageopacity="0" inkscape:pageshadow="2" inkscape:window-height="1377" inkscape:window-maximized="1" inkscape:window-width="2560" inkscape:window-x="1432" inkscape:window-y="844" inkscape:zoom="7.7455417" pagecolor="#000000" showgrid="false">
	</sodipodi:namedview>
<path id="path8" class="st0" d="M6.6,57.1c26.6,5.3,36.6,37.5,79.7,15.8L58,101.1c0,0-0.6,0.6-0.6,0.7c-1.1,1.4-2.6,2.3-4.3,2.6
	c-1.4,0.3-2.8,0.4-4.2,0.2l0,0c-1.6-0.2-3.2-0.5-4.8-1.1c-7.4-2.5-15.2-7.8-21.8-14.4S10.2,74.7,7.6,67.3c-0.4-1.2-0.8-2.5-1-3.7
	c-0.2-1.1-0.3-2.2-0.3-3.3C6.2,59.2,6.3,58.1,6.6,57.1z"/>
<path id="path10" d="M110.6,90c-1.2-1.8-2.4-3.7-3.6-5.6c-1.3,2.3-2.8,4.5-4.2,6.6c-3.5,5.5-6.7,10.5-6.7,12.6
	c0,4.7,2.2,7.7,5.2,9.2c1.5,0.7,3.2,1.2,4.9,1.2c1.8,0.1,3.5-0.1,5.2-0.7c3.5-1.2,6-4.3,6.4-8C117.9,101.2,114.3,95.8,110.6,90z"/>
<path id="path12" class="st1" d="M111.2,77.8c0.8,3.5,3.2,7.1,5.4,10.5c3.3,5.1,6.5,9.9,6.2,15.5v0.2c-0.5,5.8-4.4,10.8-10,12.7
	c-2.2,0.8-4.5,1.1-6.8,1c-2.3-0.1-4.6-0.7-6.7-1.8c-5.3-2.6-8.5-8-8.3-13.9c0-3.9,2.8-8.2,5.8-13c2.5-3.8,5.1-8,5.9-11.2
	c0.6-2.4,2.9-3.8,5.3-3.3C109.6,74.9,110.9,76.2,111.2,77.8L111.2,77.8z"/>
<path id="path14" class="st2" d="M107,78.8c2.2,9.2,12,17.1,11.5,24.8c-1.5,13.5-23.1,13-23.1-1.5C95.4,96.9,105.2,86.8,107,78.8z"
	/>
<path id="path16" class="st1" d="M34.7,18.9c-10.2,1.1-16.2,4.6-19,9.1c-1.9,3.2-2.3,7.1-1.2,10.6l0.1,0.3L34.7,18.9L34.7,18.9z
	 M80.8,30c-7.3-7.3-14.7-13-20.7-16.2c-4.3-2.2-7.7-3.1-9.3-2.2l-0.8,0.8c-1.2,2-0.5,6.3,1.8,11.6c3.5,7.7,8.5,14.6,14.5,20.5
	c6.9,6.9,14.4,12.1,20.7,15c4.5,2,8.2,2.9,10.3,2.3l1.9-1.9c0.4-1.9-0.5-5.1-2.5-9.1C93.6,44.6,88,37.2,80.8,30z M62.9,8.2
	c6.7,3.4,14.6,9.6,22.3,17.3S99,41.2,102.3,48.1c3.8,7.5,4.3,13.9,0.7,17.6c-0.6,0.6-1.3,1.1-2,1.4l-39.1,39.1
	c-2.3,2.4-3.3,3.4-7.4,4.3c-2,0.4-4.1,0.6-6.1,0.4c-2.1-0.2-4.2-0.7-6.2-1.3c-8.3-2.8-17-8.7-24.2-15.9S4.6,77.7,1.7,69.3
	c-0.5-1.5-1-3.1-1.3-4.7c-0.3-1.5-0.4-3-0.4-4.4c-0.1-2.3,0.3-4.7,1.2-6.8c1-1.8,2.2-3.5,3.8-4.9l0.2-0.2l4.7-4.7
	c-0.5-1.1-0.9-2.3-1.2-3.5C7.1,35,7.8,29.5,10.6,24.8c4.3-7,13.9-12.2,30.4-12.3l4.2-4.2c0.4-0.6,1-1.1,1.6-1.6
	c0.2-0.2,0.4-0.3,0.7-0.4C51.1,4.1,56.6,5,62.9,8.2z M91.5,67.7c-2.4-0.6-4.8-1.4-7.1-2.4c-7-3.2-15.1-8.8-22.6-16.3
	c-6.6-6.5-12-14.1-15.8-22.5c-1.1-2.5-1.9-5-2.4-7.7L17.4,44.9c1.2,1.7,2.6,3.2,4.1,4.6c7.3,6.4,18.9,9.7,31.6,4.2
	c1.5-0.6,3.3,0.1,3.9,1.6c0.6,1.5-0.1,3.2-1.6,3.9c-15.2,6.5-29.2,2.5-38-5.2c-1.6-1.4-3.1-3-4.4-4.8l-3.7,3.7c-1,0.9-1.9,2-2.5,3.2
	c-0.5,1.3-0.7,2.7-0.6,4.1c0,1.1,0.1,2.2,0.3,3.3c0.2,1.3,0.6,2.5,1,3.7c2.6,7.4,8,15.3,14.7,21.9s14.4,11.9,21.8,14.4
	c1.6,0.5,3.2,0.9,4.8,1.1l0,0c1.4,0.1,2.8,0.1,4.2-0.2c1.7-0.3,3.2-1.2,4.3-2.6c0.1-0.1,0.6-0.6,0.6-0.7L91.5,67.7z"/>
</svg>
