<?xml version="1.0" encoding="utf-8"?>
<!-- Generator: Adobe Illustrator 25.4.1, SVG Export Plug-In . SVG Version: 6.00 Build 0)  -->
<svg version="1.1"
	 id="Layer_1" xmlns:inkscape="http://www.inkscape.org/namespaces/inkscape" xmlns:sodipodi="http://sodipodi.sourceforge.net/DTD/sodipodi-0.dtd" xmlns:svg="http://www.w3.org/2000/svg"
	 xmlns="http://www.w3.org/2000/svg" xmlns:xlink="http://www.w3.org/1999/xlink" x="0px" y="0px" viewBox="0 0 122.9 122.9"
	 style="enable-background:new 0 0 122.9 122.9;" xml:space="preserve">
<style type="text/css">
	.st0{fill:#FFFFFF;}
	.st1{fill-rule:evenodd;clip-rule:evenodd;fill:#FFFFFF;}
	.st2{fill:#B2B2B2;}
	.st3{fill-rule:evenodd;clip-rule:evenodd;fill:#BFBFBF;}
	.st4{fill-rule:evenodd;clip-rule:evenodd;fill:#B2B2B2;}
</style>
<sodipodi:namedview  bordercolor="#666666" borderopacity="1.0" id="namedview7" inkscape:current-layer="g4" inkscape:cx="20.198488" inkscape:cy="61.439999" inkscape:pagecheckerboard="true" inkscape:pageopacity="0" inkscape:pageshadow="2" inkscape:window-height="1377" inkscape:window-maximized="1" inkscape:window-width="2560" inkscape:window-x="1432" inkscape:window-y="844" inkscape:zoom="7.1044923" pagecolor="#000000" showgrid="false">
	</sodipodi:namedview>
<g id="g4">
	<path class="st0" d="M113.4,72.6 M113.4,63.3L85.1,49.6l-2.4-1.2v0.5H0.2v39h82.5v0.5l2.4-1.2l28.3-14.6 M113.4,63.3 M81.7,84.2H5
		l0.1-31.6c0-0.1,76.6,0,76.6,0.1V84.2z M107.5,71.5L85.7,82.9V53.5l21.9,10.7L107.5,71.5L107.5,71.5z"/>
</g>
<g id="g6">
	<path class="st1" d="M0,9.3h54.7c2.1,0,3.8,1.4,3.8,3.1s-1.7,3.1-3.8,3.1H0v5.1h54.7c2.1,0,3.8,1.4,3.8,3.1s-1.7,3.1-3.8,3.1H0v5.1
		h54.7c2.1,0,3.8,1.4,3.8,3.1c0,1.7-1.7,3.1-3.8,3.1H0v5.5h64.5v-40H0V9.3z"/>
	<path class="st1" d="M103,16.6c-0.6,2.3-1,4.7-0.9,7.1c0.1,2.5,0.5,5.2,1.2,7.5l18.8-7.1L103,16.6z"/>
</g>
<g id="g6_00000132777148989237869480000016601089054894171559_">
	<path class="st1" d="M24.4,91.9h-4.4C21.4,91.9,22.9,91.9,24.4,91.9z"/>
	<path class="st1" d="M67.2,108.6v3C67.2,110.6,67.2,109.6,67.2,108.6z"/>
	<path class="st1" d="M48.9,91.9H34.5C39.3,92,44.1,92,48.9,91.9z"/>
	<path class="st1" d="M48.9,91.9c-4.8,0.1-9.6,0.1-14.4,0H24.4c-1.5,0-3,0-4.4,0H0v3.8v0.2h0.5H58c2.2,0,3.3,0,3.3,3.1l0.1,13.5
		c0,0,0-0.1,0-0.1c0,0,0,0,0,0.1c0,0,0,0,0,0.1c0,0,0,0,0-0.1c0,2.7-1.6,2.7-3.4,2.7H0v0.4v3.8h64.5V91.9"/>
</g>
<rect x="95.7" y="102.4" class="st1" width="27.2" height="6.5"/>
<rect x="9.7" y="59.3" class="st2" width="65.7" height="4.3"/>
<rect x="9.7" y="72.3" class="st2" width="65.7" height="4.3"/>
<path class="st3" d="M67.2,91.9v16.6c0,1.1,0,2.1,0,3v7.8l26.8-6.5c-0.7-2.4-1.1-4.9-1.2-7.3c0-2.4,0.3-4.7,1-7.1L67.2,91.9"/>
<path class="st0" d="M113.4,63.3"/>
<path class="st4" d="M100,23.9c0-1.8,0.2-5.1,1.1-7.8L67.2,3.9v40l34-11.8C100.4,29.2,99.9,25.6,100,23.9z"/>
<path class="st3" d="M111.1,62.1"/>
<path class="st3" d="M111.1,62.1v7.1c0,0.4,0,0.9,0,1.3v3.3l11.8-5.9l0,0"/>
</svg>
