<?xml version="1.0" encoding="utf-8"?>
<!-- Generator: Adobe Illustrator 25.4.1, SVG Export Plug-In . SVG Version: 6.00 Build 0)  -->
<svg version="1.1"
	 id="Layer_1" xmlns:inkscape="http://www.inkscape.org/namespaces/inkscape" xmlns:sodipodi="http://sodipodi.sourceforge.net/DTD/sodipodi-0.dtd" xmlns:svg="http://www.w3.org/2000/svg"
	 xmlns="http://www.w3.org/2000/svg" xmlns:xlink="http://www.w3.org/1999/xlink" x="0px" y="0px" viewBox="0 0 122.9 122.9"
	 style="enable-background:new 0 0 122.9 122.9;" xml:space="preserve">
<style type="text/css">
	.st0{fill-rule:evenodd;clip-rule:evenodd;fill:#CCCCCC;}
	.st1{fill-rule:evenodd;clip-rule:evenodd;fill:#FFFFFF;}
</style>
<sodipodi:namedview  bordercolor="#666666" borderopacity="1.0" id="namedview9" inkscape:current-layer="layer1" inkscape:cx="75.741972" inkscape:cy="61.807838" inkscape:pagecheckerboard="true" inkscape:pageopacity="0" inkscape:pageshadow="2" inkscape:window-height="1377" inkscape:window-maximized="1" inkscape:window-width="2560" inkscape:window-x="1432" inkscape:window-y="844" inkscape:zoom="5.0236347" pagecolor="#000000" showgrid="false">
	</sodipodi:namedview>
<g id="g6">
	<path id="path4" sodipodi:nodetypes="ccccccccccccccccccccccccc" class="st0" d="M38.2,110.3c-7.3,2.4-14.3,4.8-21.6,7.2
		c-17.1,5.6-17.2,9.2-12.6-8.1l8.8-26.1l0,0l0,0L98.6,5.4l19.7,19.1L38.2,110.3L38.2,110.3z M14.3,91.4l16.1,17.2
		c-4.5,1.7-9.6,3.7-14.4,5.4c-11.4,3.8-10.6,4.7-7.4-7.1L14.3,91.4z M113,24.3L113,24.3L113,24.3l-77.4,83.4L15.4,86.1l0,0
		l83.2-75.6l0,0l0,0L113,24.3z"/>
</g>
<g id="layer1" inkscape:groupmode="layer" inkscape:label="Layer 1">
	<path id="path1366" class="st0" d="M111.4,1.2l9.9,9.9c1.3,1.3,1.3,3.5,0,4.8l-3,3.2L103.1,4.8l3.6-3.6
		C107.9-0.1,110.1-0.1,111.4,1.2z"/>
</g>
<g id="layer4" inkscape:groupmode="layer" inkscape:label="Layer 2">
	<path id="path17311" class="st0" d="M48.4,73.3L48.4,73.3L48.4,73.3c0.9,0.9,1.2,1.9,1.2,2.9s-0.3,3-1.2,3.9l0,0l0,0L37,91.9l0,0
		l0,0c-0.3,0.3-0.5,0.5-0.8,0.7l0,0c-0.3,0.2-0.6,0.3-0.9,0.5c-1.7,0.6-3.6,0.2-4.9-1.1l0,0l0,0l0,0c-0.3-0.3-0.5-0.6-0.7-0.9l0,0
		c-0.2-0.3-0.3-0.6-0.4-0.9c-0.6-1.7-0.2-3.7,1.1-5l0,0l11.4-11.7l0,0l0,0c0.9-0.9,2.7-1.2,3.8-1.2S47.4,72.3,48.4,73.3L48.4,73.3z"
		/>
</g>
<g id="layer2" inkscape:groupmode="layer" inkscape:label="Layer 3">
</g>
<g id="layer3" inkscape:groupmode="layer" inkscape:label="Layer 4">
	<path id="path4-7" sodipodi:nodetypes="cccccccscccccccccc" class="st1" d="M99.7,70c8.3,1.5,16.3,4.3,20.7,15.3
		c2.8,7.1,2.2,15.7-1.4,23.5c-9.8-29.8-44-12.2-22,13.5c-16.1,0.8-26.3-10.5-27.9-25.7c-0.8-7.2-1.4-11.1-3-14.2
		c-0.8-1.7-2-3.1-3.6-4.9c-2.7-3-5.6-5.8-8.5-8.6c-2.8-2.7-5.6-5.4-8.4-8.3c-10.8-11.3-34-0.9-42.8-23.1C0,30.4,0.6,21.9,4.2,14.1
		c9.8,29.8,44,12.2,22-13.5c16.1-0.8,26.4,10.5,28,25.7c0.7,6.7-0.5,12.4,6.9,20c5.2,5.2,10.7,10.5,16.1,15.6c2.1,2,3.7,3.3,5.4,4.2
		C85.8,67.7,89.8,68.2,99.7,70L99.7,70z"/>
</g>
</svg>
