<?xml version="1.0" encoding="utf-8"?>
<!-- Generator: Adobe Illustrator 25.4.1, SVG Export Plug-In . SVG Version: 6.00 Build 0)  -->
<svg version="1.1"
	 id="Layer_1" xmlns:inkscape="http://www.inkscape.org/namespaces/inkscape" xmlns:sodipodi="http://sodipodi.sourceforge.net/DTD/sodipodi-0.dtd" xmlns:svg="http://www.w3.org/2000/svg"
	 xmlns="http://www.w3.org/2000/svg" xmlns:xlink="http://www.w3.org/1999/xlink" x="0px" y="0px" viewBox="0 0 122.9 122.9"
	 style="enable-background:new 0 0 122.9 122.9;" xml:space="preserve">
<style type="text/css">
	.st0{fill:#CCCCCC;}
	.st1{fill:#FFFFFF;}
</style>
<sodipodi:namedview  bordercolor="#666666" borderopacity="1.0" id="namedview7" inkscape:current-layer="g4" inkscape:cx="61.476324" inkscape:cy="58.911999" inkscape:pagecheckerboard="true" inkscape:pageopacity="0" inkscape:pageshadow="2" inkscape:window-height="1377" inkscape:window-maximized="1" inkscape:window-width="2560" inkscape:window-x="1432" inkscape:window-y="844" inkscape:zoom="7.4093565" pagecolor="#000000" showgrid="false">
	</sodipodi:namedview>
<g id="g4">
	<path id="path937" class="st0" d="M53.3,28.8H9.9C4.5,28.8,0,24.4,0,19l0,0c0-5.4,4.4-9.8,9.8-9.8h43.5c-1.5,3-2.4,6.3-2.4,9.9
		C51,22.6,51.8,25.9,53.3,28.8z"/>
	<path id="path935" class="st1" d="M87.7,19.1c0,8.2-6.7,15-15,15s-15-6.7-15-15s6.7-15,15-15S87.7,10.8,87.7,19.1z"/>
	<path id="path933" class="st0" d="M64.4,70.9h48.7c5.4,0,9.8-4.4,9.8-9.8l0,0c0-5.4-4.4-9.8-9.8-9.8H64.3c1.5,3,2.4,6.4,2.4,9.9
		S65.9,68,64.4,70.9z"/>
	<path id="path931" class="st0" d="M0,61.1L0,61.1c0,5.4,4.4,9.8,9.8,9.8h15.7c-1.5-2.9-2.3-6.2-2.3-9.7c0-3.5,0.9-6.9,2.4-9.9H9.8
		C4.4,51.3,0,55.7,0,61.1z"/>
	<path id="path929" class="st1" d="M29.9,61.2c0,8.2,6.7,15,15,15c8.2,0,15-6.7,15-15s-6.7-15-15-15C36.6,46.3,29.9,53,29.9,61.2z"
		/>
	<path id="path927" class="st0" d="M53.3,113.5H9.8c-5.4,0-9.8-4.4-9.8-9.8l0,0c0-5.4,4.4-9.8,9.8-9.8h43.6c-1.5,3-2.4,6.3-2.4,9.9
		C51,107.3,51.8,110.6,53.3,113.5z"/>
	<path id="path925" class="st0" d="M122.9,103.7L122.9,103.7c0,5.4-4.4,9.8-9.8,9.8H92.2c1.5-2.9,2.3-6.2,2.3-9.7
		c0-3.6-0.9-6.9-2.4-9.9h21C118.5,93.9,122.9,98.3,122.9,103.7z"/>
	<path id="path923" class="st1" d="M87.7,103.8c0,8.3-6.7,15-15,15s-15-6.7-15-15c0-8.2,6.7-15,15-15S87.7,95.5,87.7,103.8z"/>
	<path id="path2" class="st0" d="M122.8,19L122.8,19c0,5.4-4.4,9.8-9.8,9.8H92.2c1.5-2.9,2.3-6.2,2.3-9.7c0-3.6-0.9-6.9-2.4-9.9H113
		C118.4,9.2,122.8,13.6,122.8,19z"/>
</g>
</svg>
