<?xml version="1.0" encoding="utf-8"?>
<!-- Generator: Adobe Illustrator 25.4.1, SVG Export Plug-In . SVG Version: 6.00 Build 0)  -->
<svg version="1.1" id="Layer_1" xmlns="http://www.w3.org/2000/svg" xmlns:xlink="http://www.w3.org/1999/xlink" x="0px" y="0px"
	 viewBox="0 0 122.9 122.9" style="enable-background:new 0 0 122.9 122.9;" xml:space="preserve">
<style type="text/css">
	.st0{display:none;}
	.st1{display:inline;}
	.st2{fill-rule:evenodd;clip-rule:evenodd;fill:#FFFFFF;}
	.st3{fill:none;stroke:#FFFFFF;stroke-width:5;stroke-miterlimit:10;}
	.st4{fill:none;stroke:#B1B1B2;stroke-width:5;stroke-miterlimit:10;}
</style>
<g id="Layer_1_00000062900940965387027050000015876834302764015512_" class="st0">
	
		<g id="Layer_1_00000035526070430678056880000008131021052133227953_" xmlns:inkscape="http://www.inkscape.org/namespaces/inkscape" xmlns:sodipodi="http://sodipodi.sourceforge.net/DTD/sodipodi-0.dtd" xmlns:svg="http://www.w3.org/2000/svg" class="st1">
		
			<sodipodi:namedview  bordercolor="#666666" borderopacity="1.0" id="namedview7" inkscape:current-layer="Layer_1" inkscape:cx="61.439999" inkscape:cy="61.439999" inkscape:pagecheckerboard="true" inkscape:pageopacity="0" inkscape:pageshadow="2" inkscape:window-height="1377" inkscape:window-maximized="1" inkscape:window-width="2560" inkscape:window-x="1432" inkscape:window-y="844" inkscape:zoom="7.1044923" pagecolor="#000000" showgrid="false">
			</sodipodi:namedview>
		<g id="g4">
			<path id="path2" class="st2" d="M61.4-0.1c33.9,0,61.4,27.5,61.4,61.5s-27.5,61.5-61.4,61.5C27.5,123,0,95.5,0,61.4
				S27.5-0.1,61.4-0.1L61.4-0.1z M61.4,9.7c28.5,0,51.7,23.1,51.7,51.8S90,113.2,61.4,113.2C32.9,113.2,9.8,90,9.8,61.4
				S32.9,9.7,61.4,9.7L61.4,9.7z"/>
		</g>
	</g>
</g>
<g id="Layer_3">
	<circle class="st3" cx="61.4" cy="61.5" r="57.9"/>
	<circle class="st4" cx="61.4" cy="61.1" r="47.5"/>
</g>
<g id="Layer_2_00000069378696206815365550000010537392469208302269_">
	<g id="Layer_2_00000029011233564752764100000003103288332530141347_">
		<line class="st3" x1="28" y1="14.2" x2="28" y2="108.7"/>
	</g>
	<g id="Layer_2_00000023283492108003597570000016449994081649986476_">
		<line class="st3" x1="28" y1="14.2" x2="119.4" y2="57.8"/>
	</g>
	<line class="st3" x1="28" y1="108.7" x2="119.4" y2="57.8"/>
</g>
</svg>
