<?xml version="1.0" encoding="utf-8"?>
<!-- Generator: Adobe Illustrator 25.4.1, SVG Export Plug-In . SVG Version: 6.00 Build 0)  -->
<svg version="1.1" id="Layer_1" xmlns="http://www.w3.org/2000/svg" xmlns:xlink="http://www.w3.org/1999/xlink" x="0px" y="0px"
	 viewBox="0 0 122.9 122.9" style="enable-background:new 0 0 122.9 122.9;" xml:space="preserve">
<style type="text/css">
	.st0{fill:#FFFFFF;}
</style>
<g>
	<path class="st0" d="M75.3,64.4c1.2-1.4,1.2-3.5,0-4.9c-1.2-1.4-3.2-1.4-4.5,0L42.4,90.9c0,0-0.1,0.1-0.1,0.1l0,0
		c-3.9,4.7-8.1,5.8-11.4,4.8c-1.2-0.4-2.3-1-3.1-1.9c-0.9-0.8-1.5-1.9-2-3.2c-1.1-3.2-0.4-7.6,3.2-12.1l58.1-64.6
		c0.1-0.1,0.1-0.1,0.2-0.2c6-6.8,13.2-8.2,19-6.1c2.2,0.8,4.2,2.1,5.9,3.9c1.6,1.7,2.9,3.8,3.7,6.2c2,6.4,0.5,14.9-7.2,23.7l0,0
		c-7.1,7.8-13.8,15.9-20.4,23.8c-13,15.7-25.8,31-41.8,44.6c-6.2,5.2-13.8,6.7-20.8,5.4c-3.1-0.6-6-1.8-8.6-3.4
		c-2.6-1.6-4.8-3.7-6.6-6.3c-3.2-4.6-4.8-10.7-3.6-17.9c2-12.1,8.2-18.9,15.6-27.1c0.8-0.8,1.5-1.7,2.3-2.6l24.6-26.3l16.7-17.7
		c1.2-1.4,1.2-3.6,0-4.9c-1.2-1.4-3.2-1.3-4.5,0L44.6,27L20.2,53.4c-0.8,0.9-1.5,1.7-2.3,2.5C9.6,64.9,2.8,72.5,0.5,86.7
		C-1,96,1.1,103.9,5.3,110c2.3,3.3,5.2,6,8.4,8c3.2,2.1,6.9,3.5,10.6,4.2c8.6,1.7,18.1-0.2,25.8-6.7c16.4-13.9,29.3-29.5,42.6-45.4
		c6.5-7.8,13-15.7,20.2-23.6c0,0,0-0.1,0.1-0.1c9.7-11,11.4-22.2,8.6-30.8c-1.1-3.5-2.9-6.5-5.2-9c-2.3-2.4-5.1-4.3-8.2-5.4
		c-7.9-2.9-17.6-1.1-25.5,7.8c0,0-0.1,0.1-0.1,0.1L24.5,73.9l0,0c0,0-0.1,0.1-0.1,0.1c-5.6,6.8-6.4,13.8-4.5,19.3
		c0.8,2.3,2,4.2,3.7,5.8c1.6,1.6,3.5,2.7,5.7,3.4c5.4,1.6,12,0,17.7-6.8L75.3,64.4L75.3,64.4z"/>
</g>
</svg>
