<?xml version="1.0" encoding="utf-8"?>
<!-- Generator: Adobe Illustrator 25.4.1, SVG Export Plug-In . SVG Version: 6.00 Build 0)  -->
<svg version="1.1" id="Layer_1" xmlns="http://www.w3.org/2000/svg" xmlns:xlink="http://www.w3.org/1999/xlink" x="0px" y="0px"
	 viewBox="0 0 122.9 122.9" style="enable-background:new 0 0 122.9 122.9;" xml:space="preserve">
<style type="text/css">
	.st0{fill-rule:evenodd;clip-rule:evenodd;fill:#FFFFFF;}
</style>
<g>
	<path class="st0" d="M34.8,94.7h25.1l8.6-8.7c1.1-1.1,1.3-2.7,0.2-3.7L46.2,59.5c-1.1-1.1-2.9-1.1-3.9,0L22.8,78.7
		c-1.1,1.1-1.1,3.2,0,4.2L34.8,94.7L34.8,94.7z M68.3,94.7h40.1v5.9H60.7h-8.4h-9.9h-9.1H33L15.3,82.8c-1.1-1.1-1.1-3.1,0-4.2
		l55.4-55.5c1.1-1.1,2.9-1.1,3.9,0l30.7,30.7c1.1,1.1,1.1,2.9,0,3.9L68.3,94.7L68.3,94.7z"/>
</g>
</svg>
