<?xml version="1.0" encoding="utf-8"?>
<!-- Generator: Adobe Illustrator 25.4.1, SVG Export Plug-In . SVG Version: 6.00 Build 0)  -->
<svg version="1.1"
	 id="Layer_1" xmlns:cc="http://creativecommons.org/ns#" xmlns:dc="http://purl.org/dc/elements/1.1/" xmlns:inkscape="http://www.inkscape.org/namespaces/inkscape" xmlns:rdf="http://www.w3.org/1999/02/22-rdf-syntax-ns#" xmlns:sodipodi="http://sodipodi.sourceforge.net/DTD/sodipodi-0.dtd" xmlns:svg="http://www.w3.org/2000/svg"
	 xmlns="http://www.w3.org/2000/svg" xmlns:xlink="http://www.w3.org/1999/xlink" x="0px" y="0px" viewBox="0 0 122.9 122.9"
	 style="enable-background:new 0 0 122.9 122.9;" xml:space="preserve">
<style type="text/css">
	.st0{fill:#FFFFFF;}
</style>
<sodipodi:namedview  bordercolor="#666666" borderopacity="1.0" id="namedview7" inkscape:current-layer="Layer_1" inkscape:cx="61.413235" inkscape:cy="56.494999" inkscape:pagecheckerboard="true" inkscape:pageopacity="0" inkscape:pageshadow="2" inkscape:window-height="1377" inkscape:window-maximized="1" inkscape:window-width="2560" inkscape:window-x="1432" inkscape:window-y="844" inkscape:zoom="7.7263476" pagecolor="#000000" showgrid="false">
	</sodipodi:namedview>
<path id="path4" class="st0" d="M120.6,44.5L63.1,73.1c-1,0.5-2.3,0.5-3.3,0L2.1,44.4c-1.9-0.9-2.6-3.2-1.7-5.1
	c0.3-0.7,0.9-1.2,1.5-1.6L59.6,5.4c1.2-0.7,2.6-0.7,3.7,0L121,37.7c1.8,1,2.5,3.3,1.4,5.1C122,43.6,121.4,44.1,120.6,44.5
	L120.6,44.5z M110.9,85.4c-1.8-1-2.5-3.3-1.5-5.1c1-1.8,3.3-2.5,5.1-1.5l6.4,3.4c1.8,1,2.5,3.2,1.6,5.1c-0.4,0.7-1,1.3-1.7,1.7
	l-57.6,28.6c-1,0.5-2.3,0.5-3.3,0L2.1,88.9c-1.8-0.9-2.6-3.1-1.7-5c0.3-0.7,0.9-1.3,1.6-1.7L8,79c1.8-1,4.1-0.3,5.1,1.5
	c0.9,1.7,0.4,3.7-1.1,4.8l49.4,24.6L110.9,85.4L110.9,85.4z M111,62.6c-1.5-1.5-1.4-3.9,0-5.3c1.1-1.1,2.9-1.4,4.3-0.7l5.5,2.9
	c1.8,1,2.5,3.2,1.6,5.1c-0.4,0.7-1,1.3-1.7,1.7L63.1,94.9c-1,0.5-2.3,0.5-3.3,0L2.1,66.2c-1.8-0.9-2.6-3.1-1.7-5
	c0.3-0.7,0.9-1.3,1.6-1.7l5.9-3.1c1.8-1,4.1-0.4,5.1,1.4c0.9,1.7,0.5,3.7-1,4.9l49.5,24.6L111,62.6z M61.4,65.5L111,40.8L61.4,13
	L11.8,40.8L61.4,65.5z"/>
</svg>
