<?xml version="1.0" encoding="utf-8"?>
<!-- Generator: Adobe Illustrator 25.4.1, SVG Export Plug-In . SVG Version: 6.00 Build 0)  -->
<svg version="1.1" xmlns="http://www.w3.org/2000/svg" xmlns:xlink="http://www.w3.org/1999/xlink" x="0px" y="0px"
	 viewBox="0 0 122.9 122.9" style="enable-background:new 0 0 122.9 122.9;" xml:space="preserve">
<style type="text/css">
	.st0{fill:#D1D3D4;}
	.st1{fill:#FFFFFF;}
</style>
<g id="Layer_2">
	
		<rect x="28.7" y="18" transform="matrix(0.9999 -1.417707e-02 1.417707e-02 0.9999 -0.739 0.4619)" class="st0" width="7" height="68.7"/>
	
		<rect x="88.7" y="18.8" transform="matrix(0.9999 -1.408381e-02 1.408381e-02 0.9999 -0.7391 1.3042)" class="st0" width="7" height="68.7"/>
	<rect x="0.7" y="49" transform="matrix(0.9078 -0.4193 0.4193 0.9078 -18.9907 18.4993)" class="st0" width="63.7" height="7"/>
	<rect x="86.9" y="20" transform="matrix(0.3892 -0.9212 0.9212 0.3892 7.951 114.5701)" class="st0" width="7" height="62.7"/>
	<rect x="33.8" y="95.8" transform="matrix(0.9227 -0.3855 0.3855 0.9227 -33.2923 32.517)" class="st0" width="61.3" height="7"/>
	<rect x="59" y="66.2" transform="matrix(0.3556 -0.9347 0.9347 0.3556 -51.3726 121.5575)" class="st0" width="7" height="63.7"/>
</g>
<g id="Layer_1" sodipodi:docname="box.svg" xmlns:inkscape="http://www.inkscape.org/namespaces/inkscape" xmlns:sodipodi="http://sodipodi.sourceforge.net/DTD/sodipodi-0.dtd" xmlns:svg="http://www.w3.org/2000/svg">
	
		<sodipodi:namedview  bordercolor="#666666" borderopacity="1.0" id="namedview7" inkscape:current-layer="Layer_1" inkscape:cx="60.736219" inkscape:cy="61.439999" inkscape:pagecheckerboard="true" inkscape:pageopacity="0" inkscape:pageshadow="2" inkscape:window-height="1377" inkscape:window-maximized="1" inkscape:window-width="2560" inkscape:window-x="1432" inkscape:window-y="844" inkscape:zoom="7.1044923" pagecolor="#000000" showgrid="false">
		</sodipodi:namedview>
	<g id="g4">
		<path id="path2" sodipodi:nodetypes="ccccccsccccsccccscccccccccccccccc" class="st1" d="M3.4,103.8l56.9,18.9
			c0.7,0.2,1.4,0.2,2,0l0,0L120,103c1.4-0.5,2.3-1.9,2.2-3.3c0-0.1,0-0.1,0-0.2V32.4l0,0c0-1.2-0.6-2.3-1.8-2.8L63.2,0.5
			c-0.5-0.3-1-0.5-1.7-0.5c-0.6,0-1.2,0.2-1.7,0.5L2.4,30.4c-1.1,0.6-1.7,1.7-1.7,2.8l0,0v67.3C0.7,102.2,1.9,103.5,3.4,103.8z
			 M58.3,8.4v64.1L7.1,95.8V35.2L58.3,8.4z M115.8,95.1L64.7,72.5V8.4l51.1,26C115.8,34.4,115.8,95.1,115.8,95.1z M61.3,116.3
			l-48.5-16.2L61.5,78l48.7,21.5L61.3,116.3z"/>
	</g>
</g>
</svg>
