<?xml version="1.0" encoding="utf-8"?>
<!-- Generator: Adobe Illustrator 25.4.1, SVG Export Plug-In . SVG Version: 6.00 Build 0)  -->
<svg version="1.1"
	 id="Layer_1" inkscape:version="1.1 (c68e22c387, 2021-05-23)" xmlns:cc="http://creativecommons.org/ns#" xmlns:dc="http://purl.org/dc/elements/1.1/" xmlns:inkscape="http://www.inkscape.org/namespaces/inkscape" xmlns:rdf="http://www.w3.org/1999/02/22-rdf-syntax-ns#" xmlns:sodipodi="http://sodipodi.sourceforge.net/DTD/sodipodi-0.dtd" xmlns:svg="http://www.w3.org/2000/svg"
	 xmlns="http://www.w3.org/2000/svg" xmlns:xlink="http://www.w3.org/1999/xlink" x="0px" y="0px" viewBox="0 0 122.9 122.9"
	 style="enable-background:new 0 0 122.9 122.9;" xml:space="preserve">
<style type="text/css">
	.st0{fill-rule:evenodd;clip-rule:evenodd;fill:#FFFFFF;}
</style>
<sodipodi:namedview  bordercolor="#666666" borderopacity="1.0" id="namedview11" inkscape:current-layer="Layer_1" inkscape:cx="13.582955" inkscape:cy="61.439999" inkscape:pagecheckerboard="true" inkscape:pageopacity="0" inkscape:pageshadow="2" inkscape:window-height="1377" inkscape:window-maximized="1" inkscape:window-width="2560" inkscape:window-x="1432" inkscape:window-y="844" inkscape:zoom="7.1044923" pagecolor="#000000" showgrid="false">
	</sodipodi:namedview>
<path id="path8" class="st0" d="M42.3,0c23.4,0,42.3,19,42.3,42.3c0,8.3-2.5,16.5-7.1,23.4l8.6,8.6l0.1-0.1c2.1-2.1,5.5-2.1,7.6,0
	l27.6,27.6c2.1,2.1,2.1,5.5,0,7.6l-12,12c-2.1,2.1-5.5,2.1-7.6,0L74.2,93.8c-2.1-2.1-2.1-5.5,0-7.6l0.1-0.1l-8.6-8.6
	C46.3,90.5,20,85.2,7.1,65.8S-0.6,20.1,18.8,7.1C25.8,2.5,34,0,42.3,0z M42.3,9.5c18.1,0,32.8,14.7,32.8,32.8S60.4,75.1,42.3,75.1
	S9.5,60.4,9.5,42.3l0,0C9.5,24.2,24.2,9.5,42.3,9.5z"/>
</svg>
