<?xml version="1.0" encoding="utf-8"?>
<!-- Generator: Adobe Illustrator 25.4.1, SVG Export Plug-In . SVG Version: 6.00 Build 0)  -->
<svg version="1.1"
	 id="Layer_1" xmlns:inkscape="http://www.inkscape.org/namespaces/inkscape" xmlns:sodipodi="http://sodipodi.sourceforge.net/DTD/sodipodi-0.dtd" xmlns:svg="http://www.w3.org/2000/svg"
	 xmlns="http://www.w3.org/2000/svg" xmlns:xlink="http://www.w3.org/1999/xlink" x="0px" y="0px" viewBox="0 0 122.9 122.9"
	 style="enable-background:new 0 0 122.9 122.9;" xml:space="preserve">
<style type="text/css">
	.st0{fill:#CCCCCC;}
	.st1{fill-rule:evenodd;clip-rule:evenodd;fill:#FFFFFF;}
	.st2{fill-rule:evenodd;clip-rule:evenodd;fill:#CCCCCC;}
</style>
<sodipodi:namedview  bordercolor="#666666" borderopacity="1.0" id="namedview9" inkscape:current-layer="Layer_1" inkscape:cx="60.762778" inkscape:cy="108.13883" inkscape:pagecheckerboard="true" inkscape:pageopacity="0" inkscape:pageshadow="2" inkscape:window-height="1377" inkscape:window-maximized="1" inkscape:window-width="2560" inkscape:window-x="1432" inkscape:window-y="844" inkscape:zoom="10.047269" pagecolor="#000000" showgrid="false">
	</sodipodi:namedview>
<path id="path12503" sodipodi:nodetypes="sssssscsss" class="st0" d="M40.7,120.8c17.4-3.6,32.3-18.2,46.8-22.1
	c14.5-3.9,32.2,2.5,33.1,2.6c0.8,0.1,2-1.8,1.4-2.1c-0.7-0.3-20.6-7.3-35.2-3.5c-8.2,2.2-15.6,7.6-23.7,12.1s-15.2,7.9-22.6,9.7
	C23.7,121.6,4,120.7,3,120.4c-0.9-0.3-2,1.2-0.7,1.6C3.6,122.5,23.3,124.3,40.7,120.8L40.7,120.8z"/>
<g id="g6">
	<path id="path4" sodipodi:nodetypes="ccccccccccccccccccccccccc" class="st1" d="M38.2,110.3c-7.3,2.4-14.3,4.8-21.6,7.2
		c-17.1,5.6-17.2,9.2-12.6-8.1l8.8-26.1l0,0l0,0L98.6,5.4l19.7,19.1L38.2,110.3L38.2,110.3z M14.3,91.4l16.1,17.2
		c-4.5,1.7-9.6,3.7-14.4,5.4c-11.4,3.8-10.6,4.7-7.4-7.1L14.3,91.4z M113,24.3L113,24.3L113,24.3l-77.4,83.4L15.4,86.1v0l83.2-75.6
		l0,0l0,0L113,24.3z"/>
</g>
<g id="layer1" inkscape:groupmode="layer" inkscape:label="Layer 1">
	<path id="path1366" class="st2" d="M111.4,1.2l9.9,9.9c1.3,1.3,1.3,3.5,0,4.8l-3,3.2L103.1,4.8l3.6-3.6
		C107.9-0.1,110.1-0.1,111.4,1.2z"/>
</g>
<g id="layer4" inkscape:groupmode="layer" inkscape:label="Layer 2">
	<path id="path933" class="st2" d="M64.3,58.4L64.3,58.4L64.3,58.4c0.6,0.5,0.9,1.2,0.9,1.9c0,0.7-0.3,1.4-0.9,1.9v0l0,0l-6.7,6.9
		l0,0h0c-0.2,0.1-0.4,0.3-0.5,0.4h0c-0.2,0.1-0.4,0.2-0.6,0.3c-1.1,0.3-2.3,0.1-3.1-0.6h0l0,0v0c-0.2-0.1-0.3-0.3-0.4-0.5v0
		c-0.1-0.2-0.2-0.4-0.3-0.5c-0.4-1-0.1-2.1,0.7-2.8v0l6.7-6.9l0,0h0c0.6-0.5,1.4-0.8,2.1-0.8C62.9,57.6,63.7,57.9,64.3,58.4z"/>
	<path id="path17311" class="st2" d="M48.4,73.3L48.4,73.3L48.4,73.3c0.9,0.9,1.2,1.9,1.2,2.9s-0.3,3-1.2,3.9v0l0,0L37,91.9l0,0h0
		c-0.3,0.3-0.5,0.5-0.8,0.7h0c-0.3,0.2-0.6,0.3-0.9,0.5c-1.7,0.6-3.6,0.2-4.9-1.1h0l0,0v0c-0.3-0.3-0.5-0.6-0.7-0.9v0
		c-0.2-0.3-0.3-0.6-0.4-0.9c-0.6-1.7-0.2-3.7,1.1-5v0l11.4-11.7l0,0h0c0.9-0.9,2.7-1.2,3.8-1.2S47.4,72.3,48.4,73.3L48.4,73.3z"/>
</g>
<g id="layer2" inkscape:groupmode="layer" inkscape:label="Layer 3">
</g>
<g id="layer3" inkscape:groupmode="layer" inkscape:label="Layer 4">
</g>
</svg>
