<?xml version="1.0" encoding="utf-8"?>
<!-- Generator: Adobe Illustrator 25.4.1, SVG Export Plug-In . SVG Version: 6.00 Build 0)  -->
<svg version="1.1"
	 id="Layer_1" xmlns:inkscape="http://www.inkscape.org/namespaces/inkscape" xmlns:sodipodi="http://sodipodi.sourceforge.net/DTD/sodipodi-0.dtd" xmlns:svg="http://www.w3.org/2000/svg"
	 xmlns="http://www.w3.org/2000/svg" xmlns:xlink="http://www.w3.org/1999/xlink" x="0px" y="0px" viewBox="0 0 122.9 122.9"
	 style="enable-background:new 0 0 122.9 122.9;" xml:space="preserve">
<style type="text/css">
	.st0{fill:#FFFFFF;}
	.st1{fill:#D1D3D4;}
</style>
<sodipodi:namedview  bordercolor="#666666" borderopacity="1.0" id="namedview7" inkscape:current-layer="g4" inkscape:cx="61.504756" inkscape:cy="59.330002" inkscape:pagecheckerboard="true" inkscape:pageopacity="0" inkscape:pageshadow="2" inkscape:window-height="1377" inkscape:window-maximized="1" inkscape:window-width="2560" inkscape:window-x="1432" inkscape:window-y="844" inkscape:zoom="7.3571547" pagecolor="#000000" showgrid="false">
	</sodipodi:namedview>
<g id="g4">
	<g id="g1854" transform="matrix(-1,0,0,1,122.40481,0)">
		<path id="path2" sodipodi:nodetypes="ccccccccccccccccccccccccccc" class="st0" d="M84.9,121c0,0,14.3-8.9,21.5-18.2
			c7.9-10.3,12.3-23,12.2-35.7c-0.1-12.8-4.8-25.5-13-35.7c-6.9-8.7-16.1-15.9-26.8-20.2C65,5.5,49.2,4.8,34.9,9
			c-6,1.7-11.7,4.3-17,7.6c0.4-2.8,0.9-5.6,1.2-8.4c0.1-2.9-2.5-5.6-5.6-5.7c-3-0.2-5.9,2.1-6.2,4.9C6.1,15,5,22.6,3.9,30.3
			c-0.3,2.9,2.2,5.7,5.3,5.9c8.5,0.3,16.9,0.6,25.4,0.9c3.1,0,5.8-2.7,5.7-5.6c0.1-2.9-2.6-5.6-5.7-5.6c-3.1-0.1-6.3-0.2-9.4-0.3
			c7.5-4.6,16.5-7.3,25.3-7.9c1-0.1,1.9-0.1,3-0.1c4.9,0,9.7,0.6,14.4,1.8c0.5,0.1,1.5,0.4,2,0.6c1.8,0.6,3.6,1.2,5.3,1.9
			c9.2,3.9,16.9,10.6,22.6,18.4c4,5.6,6.8,11.9,8.1,18.6c0.1,0.4,0.2,1.2,0.3,1.7c1.8,11.1-0.8,22.7-7,32.2
			c-4.7,7.2-21.6,20.1-21.6,20.1L84.9,121z"/>
	</g>
</g>
<circle class="st1" cx="65.1" cy="65.2" r="15"/>
</svg>
