<?xml version="1.0" encoding="utf-8"?>
<!-- Generator: Adobe Illustrator 25.4.1, SVG Export Plug-In . SVG Version: 6.00 Build 0)  -->
<svg version="1.1" id="Layer_1" xmlns="http://www.w3.org/2000/svg" xmlns:xlink="http://www.w3.org/1999/xlink" x="0px" y="0px"
	 viewBox="0 0 122.9 122.9" style="enable-background:new 0 0 122.9 122.9;" xml:space="preserve">
<style type="text/css">
	.st0{display:none;fill:#FFFFFF;}
	.st1{fill:#FFFFFF;}
	.st2{fill:#D1D3D4;}
</style>
<rect y="0.1" class="st0" width="41.6" height="18"/>
<rect y="0.1" class="st1" width="37.6" height="14"/>
<rect x="81.3" y="0.1" class="st0" width="41.6" height="18"/>
<rect x="85.3" y="0.1" class="st1" width="37.6" height="14"/>
<rect x="81.3" y="104.9" class="st0" width="41.6" height="18"/>
<rect x="85.3" y="108.9" class="st1" width="37.6" height="14"/>
<rect y="104.9" class="st0" width="41.6" height="18"/>
<rect x="0" y="108.9" class="st1" width="37.6" height="14"/>
<rect x="0" y="81.3" class="st0" width="18" height="41.6"/>
<rect x="0.1" y="85.3" class="st1" width="14" height="37.6"/>
<rect x="0" class="st0" width="18" height="41.6"/>
<rect x="0.1" y="0.1" class="st1" width="14" height="37.6"/>
<rect x="104.9" y="0" class="st0" width="18" height="41.6"/>
<rect x="108.9" class="st1" width="14" height="37.6"/>
<rect x="104.9" y="81.3" class="st0" width="18" height="41.6"/>
<rect x="108.9" y="85.3" class="st1" width="14" height="37.6"/>
<circle class="st2" cx="61.5" cy="61.5" r="15"/>
</svg>
