<?xml version="1.0" encoding="utf-8"?>
<!-- Generator: Adobe Illustrator 25.4.1, SVG Export Plug-In . SVG Version: 6.00 Build 0)  -->
<svg version="1.1" id="Layer_1" xmlns="http://www.w3.org/2000/svg" xmlns:xlink="http://www.w3.org/1999/xlink" x="0px" y="0px"
	 viewBox="0 0 122.9 122.9" style="enable-background:new 0 0 122.9 122.9;" xml:space="preserve">
<style type="text/css">
	.st0{fill-rule:evenodd;clip-rule:evenodd;fill:#FFFFFF;}
</style>
<g>
	<path class="st0" d="M83.5,18.9h9.7l0,0c0.2,0,0.3,0.1,0.4,0.2l9.8,9.8c0.1,0.1,0.2,0.3,0.2,0.5v71.5v0.1c0,0.7-0.1,1.2-0.4,1.7
		l0,0c0,0.1-0.1,0.2-0.1,0.2l0,0c-0.1,0.1-0.2,0.1-0.2,0.2l0,0l0,0l0,0c-0.2,0.2-0.5,0.4-0.7,0.5l0,0l0,0l0,0h-0.1l0,0l0,0
		c-0.3,0.1-0.7,0.2-1.2,0.2h-0.1H80c-0.4,0-0.7-0.3-0.7-0.7V83.9c0-6.1,0-6.1-5.9-6.1l0,0H43.1c-6,0-6,0-6.1,6.1v19.2
		c0,0.4-0.3,0.7-0.7,0.7H22.2c-0.5,0-0.9-0.1-1.3-0.2s-0.7-0.3-1-0.6c-0.6-0.5-0.7-1.4-0.7-2.1v-0.1l0,0l0,0V21.9
		c0-0.5,0.1-0.9,0.2-1.2l0,0l0,0l0,0l0.1-0.2l0,0l0,0l0.1-0.2l0,0l0,0l0,0l0,0l0.1-0.2l0,0V20l0.1-0.1v-0.1c0.1-0.1,0.3-0.2,0.4-0.3
		c0.1-0.1,0.3-0.2,0.4-0.2l0,0c0.1,0,0.3-0.1,0.4-0.1l0,0l0,0l0,0h0.1l0,0l0,0l0,0c0.2,0,0.4,0,0.6,0h0.1l0,0l0,0h10.8v32.4v0.1
		c0,0.7,0.1,1.3,0.4,1.8c0,0.1,0.1,0.2,0.2,0.3s0.1,0.1,0.2,0.2l0,0c0.2,0.2,0.6,0.4,0.9,0.6l0.2,0.1l0,0l0,0
		c0.3,0.1,0.7,0.1,1.1,0.1l0,0h0.1H80c0.7,0,1.3-0.1,1.8-0.4l0,0l0.2-0.1l0,0c0.1-0.1,0.1-0.1,0.2-0.2l0,0l0,0
		c0.5-0.5,0.7-1.3,0.7-2.3l0,0 M39.8,103.8l36.9,0.2V83l0,0c0-2.1,0-2.1-2.1-2.1l0,0H42l0,0l0,0l0,0c-2.2,0-2.2,0-2.2,2l0,0V103.8
		L39.8,103.8z M80.4,51.3H36.1V18.9h44.3 M107.6,28v76c0,4.1,0,4.1-5,4.1l0,0l0,0H18.3c-3.4,0-3.4,0-3.4-3.8V19.7
		c0-4.6,0-4.6,4.4-4.6H95"/>
</g>
<path class="st0" d="M80.4,51.6"/>
<polyline class="st0" points="43.2,27.6 73.4,27.6 73.4,30.3 43.2,30.3 "/>
<path class="st0" d="M79.4,84.1"/>
<polyline class="st0" points="43.2,39.2 73.4,39.2 73.4,41.9 43.2,41.9 "/>
</svg>
