<?xml version="1.0" encoding="utf-8"?>
<!-- Generator: Adobe Illustrator 25.4.1, SVG Export Plug-In . SVG Version: 6.00 Build 0)  -->
<svg version="1.1" id="Layer_1" xmlns="http://www.w3.org/2000/svg" xmlns:xlink="http://www.w3.org/1999/xlink" x="0px" y="0px"
	 viewBox="0 0 122.9 122.9" style="enable-background:new 0 0 122.9 122.9;" xml:space="preserve">
<style type="text/css">
	.st0{fill:#FFFFFF;}
	.st1{fill:url(#SVGID_1_);}
	.st2{fill:#333333;}
	.st3{fill:#666666;}
	.st4{fill:#999999;}
	.st5{fill:#CCCCCC;}
	.st6{fill:url(#SVGID_00000111167015595721486240000014991698699953319355_);}
	.st7{fill:url(#SVGID_00000009568029482241214150000002552253067820497811_);}
	.st8{fill:url(#SVGID_00000127765248234381404950000001598140537716069774_);}
</style>
<path class="st0" d="M15.1,64.8c-2.9,0.1-4.9-0.4-7.4-2.3l0,0c-3.1-3.1-3.2-5.1-0.1-8.1l0,0c2.2-1.9,4.1-2.4,7.5-2.2
	c0.9,0,1.2,0,1.8,0c0.5,0,1.2,0,1.8,0.1h3.7H26h29.5l32.6,0h14.8c10.7-0.2,14.8,1.1,14.8,6c0,4.6-4.1,6.7-14.8,6.5H88.1l-32.6,0H26
	h-3.5h-3.7"/>
<linearGradient id="SVGID_1_" gradientUnits="userSpaceOnUse" x1="7.6455" y1="34.5083" x2="116.8547" y2="34.5083" gradientTransform="matrix(-1 0 0 1 124.9033 0)">
	<stop  offset="0" style="stop-color:#FFFFFF"/>
	<stop  offset="1" style="stop-color:#000000"/>
</linearGradient>
<path class="st1" d="M106.5,40.4c14.5-0.7,14.1-11.1,0-12.3c-0.1,0-0.2,0-0.3,0c-11-1.2-22-1.3-33-1.3c-11,0-41.9,0.1-52.9,1.2
	c-0.2,0-0.3,0-0.5,0.1C4.2,29,4.1,39.5,19.8,40.4c0.2,0,0.3,0,0.5,0.1c11,1.2,41.9,1.7,52.9,1.7c11,0,22-0.5,33-1.7
	C106.3,40.5,106.4,40.4,106.5,40.4z"/>
<path class="st0" d="M109.2,3.6L8,11l101.2,7.3c4.3,0.3,8-3.1,8-7.3v0C117.3,6.7,113.6,3.3,109.2,3.6z"/>
<ellipse cx="14.9" cy="81.4" rx="6.9" ry="6.8"/>
<ellipse class="st2" cx="33.8" cy="81.4" rx="6.9" ry="6.8"/>
<ellipse class="st3" cx="52.7" cy="81.4" rx="6.9" ry="6.8"/>
<ellipse class="st4" cx="71.8" cy="81.4" rx="6.9" ry="6.8"/>
<ellipse class="st5" cx="90.6" cy="81.4" rx="6.9" ry="6.8"/>
<ellipse class="st0" cx="109.4" cy="81.4" rx="6.9" ry="6.8"/>
<linearGradient id="SVGID_00000069385326733656840390000007656211178808005280_" gradientUnits="userSpaceOnUse" x1="37.7123" y1="107.5301" x2="13.7658" y2="107.5301">
	<stop  offset="0" style="stop-color:#FFFFFF"/>
	<stop  offset="1" style="stop-color:#000000"/>
</linearGradient>
<ellipse style="fill:url(#SVGID_00000069385326733656840390000007656211178808005280_);" cx="25.7" cy="107.5" rx="12" ry="11.7"/>
<linearGradient id="SVGID_00000005234499687164144130000007150297099834487976_" gradientUnits="userSpaceOnUse" x1="74.6265" y1="107.5301" x2="50.68" y2="107.5301">
	<stop  offset="0" style="stop-color:#FFFFFF"/>
	<stop  offset="1" style="stop-color:#000000"/>
</linearGradient>
<ellipse style="fill:url(#SVGID_00000005234499687164144130000007150297099834487976_);" cx="62.7" cy="107.5" rx="12" ry="11.7"/>
<linearGradient id="SVGID_00000128476395718147697220000014205214619592118967_" gradientUnits="userSpaceOnUse" x1="111.5407" y1="107.5301" x2="87.5942" y2="107.5301">
	<stop  offset="0" style="stop-color:#FFFFFF"/>
	<stop  offset="1" style="stop-color:#000000"/>
</linearGradient>
<ellipse style="fill:url(#SVGID_00000128476395718147697220000014205214619592118967_);" cx="99.6" cy="107.5" rx="12" ry="11.7"/>
</svg>
