<?xml version="1.0" encoding="utf-8"?>
<!-- Generator: Adobe Illustrator 25.4.1, SVG Export Plug-In . SVG Version: 6.00 Build 0)  -->
<svg version="1.1" xmlns="http://www.w3.org/2000/svg" xmlns:xlink="http://www.w3.org/1999/xlink" x="0px" y="0px"
	 viewBox="0 0 122.9 122.9" style="enable-background:new 0 0 122.9 122.9;" xml:space="preserve">
<style type="text/css">
	.st0{fill:#FFFFFF;}
	.st1{fill:none;stroke:#CCCCCC;stroke-width:6.4615;stroke-miterlimit:10;}
</style>
<g id="Layer_1" xmlns:inkscape="http://www.inkscape.org/namespaces/inkscape" xmlns:sodipodi="http://sodipodi.sourceforge.net/DTD/sodipodi-0.dtd" xmlns:svg="http://www.w3.org/2000/svg">
	
		<sodipodi:namedview  bordercolor="#666666" borderopacity="1.0" id="namedview7" inkscape:current-layer="Layer_1" inkscape:cx="61.439999" inkscape:cy="61.439999" inkscape:pagecheckerboard="true" inkscape:pageopacity="0" inkscape:pageshadow="2" inkscape:window-height="1377" inkscape:window-maximized="1" inkscape:window-width="2560" inkscape:window-x="1432" inkscape:window-y="844" inkscape:zoom="7.1044923" pagecolor="#000000" showgrid="false">
		</sodipodi:namedview>
	<g id="g4">
		<path id="path2" class="st0" d="M98,18.7c-0.3-0.3-0.7-0.6-1-0.7s-0.7-0.2-1.2-0.2c-0.4,0-0.8,0.1-1.2,0.2c-0.3,0.1-0.7,0.4-1,0.7
			l0,0l-6.2,6.2c-0.9,0.9-2.4,1-3.4,0.3c-0.7-0.5-1.5-0.9-2.3-1.4c-0.9-0.5-1.7-0.9-2.5-1.3c-0.9-0.4-1.7-0.8-2.6-1.1
			c-0.8-0.3-1.7-0.6-2.7-1c-1.1-0.4-1.8-1.4-1.8-2.6l0,0V8.4c0-0.5-0.1-0.9-0.2-1.2c-0.1-0.3-0.4-0.7-0.7-1c-0.3-0.3-0.6-0.5-1-0.7
			c-0.3-0.1-0.8-0.2-1.2-0.2H57c-0.4,0-0.8,0.1-1.1,0.2s-0.7,0.4-1,0.7l0,0c-0.3,0.3-0.5,0.6-0.7,0.9C54,7.6,53.9,8,53.9,8.4v8.7
			c0,1.3-1,2.4-2.2,2.7c-1,0.2-1.8,0.5-2.6,0.7c-0.9,0.3-1.8,0.6-2.7,0.9h-0.1c-0.8,0.3-1.6,0.7-2.5,1c-0.9,0.4-1.7,0.8-2.4,1.2
			c-1.1,0.6-2.3,0.4-3.2-0.4l0,0l-6.9-6.8c0,0,0,0-0.1-0.1l0,0c-0.3-0.3-0.6-0.5-0.9-0.7c-0.3-0.1-0.7-0.2-1.1-0.2s-0.8,0.1-1.1,0.2
			c-0.4,0.2-0.7,0.4-1.1,0.7l0,0l-8.3,8.4l0,0l0,0c-0.3,0.3-0.6,0.7-0.7,1s-0.2,0.7-0.2,1.1s0.1,0.8,0.2,1.2c0.1,0.3,0.4,0.7,0.7,1
			l0,0l6.2,6.2c0.9,0.9,1,2.4,0.3,3.4c-0.5,0.7-0.9,1.5-1.4,2.3c-0.5,0.9-0.9,1.7-1.3,2.5c-0.4,0.9-0.8,1.7-1.1,2.6
			c-0.3,0.8-0.6,1.7-1,2.7c-0.4,1.1-1.4,1.8-2.6,1.8l0,0H8.4c-0.5,0-0.9,0.1-1.2,0.2c-0.3,0.1-0.7,0.4-1,0.7l0,0l0,0
			c-0.3,0.3-0.5,0.6-0.7,1c-0.1,0.4-0.2,0.8-0.2,1.2v11.9c0,0.4,0.1,0.8,0.2,1.1c0.1,0.3,0.4,0.7,0.7,1l0,0c0.3,0.3,0.6,0.5,0.9,0.7
			c0.3,0.1,0.7,0.2,1.2,0.2H17c1.3,0,2.4,1,2.7,2.2c0.2,1,0.5,1.8,0.7,2.6c0.3,0.9,0.6,1.8,0.9,2.7c0.3,0.8,0.7,1.7,1.1,2.6
			s0.8,1.8,1.2,2.6c0.6,1.1,0.3,2.3-0.5,3.1l0,0l-6.8,6.8l0,0l0,0c-0.3,0.3-0.5,0.6-0.7,0.9c-0.1,0.3-0.2,0.7-0.2,1.1
			s0.1,0.8,0.2,1.1c0.2,0.4,0.4,0.7,0.7,1.1l8.3,8.4c0.3,0.3,0.7,0.5,1,0.7c0.4,0.1,0.8,0.2,1.2,0.2c0.5,0,0.9-0.1,1.2-0.2
			c0.3-0.1,0.7-0.3,1-0.6l6.2-6.3c0.9-0.9,2.4-1.1,3.4-0.3c0.7,0.5,1.5,0.9,2.3,1.4c0.9,0.5,1.7,0.9,2.5,1.3
			c0.9,0.4,1.7,0.8,2.6,1.1c0.8,0.3,1.7,0.6,2.7,1c1.1,0.4,1.8,1.4,1.8,2.6l0,0v9.5c0,0.5,0.1,0.9,0.2,1.2c0.1,0.3,0.4,0.7,0.7,1
			l0,0l0,0c0.6,0.6,1.3,0.9,2.2,0.9h11.9c0.4,0,0.8-0.1,1.1-0.2c0.3-0.1,0.7-0.4,1-0.7l0,0c0.3-0.3,0.5-0.6,0.7-0.9
			c0.1-0.3,0.2-0.7,0.2-1.2v-8.7c0-1.3,1-2.4,2.2-2.7c1-0.2,1.8-0.5,2.6-0.7c0.9-0.3,1.8-0.6,2.7-0.9c0.8-0.3,1.7-0.7,2.6-1.1
			s1.8-0.8,2.5-1.2c1.1-0.6,2.3-0.3,3.1,0.5l0,0l6.8,6.8l0,0l0,0c0.3,0.3,0.6,0.5,0.9,0.7c0.3,0.1,0.7,0.2,1.1,0.2s0.8-0.1,1.2-0.2
			c0.3-0.1,0.6-0.4,0.9-0.7l0.1-0.1l8.4-8.3c0.3-0.3,0.5-0.7,0.7-1c0.1-0.4,0.2-0.8,0.2-1.2c0-0.5-0.1-0.9-0.2-1.2
			c-0.1-0.3-0.3-0.7-0.6-1l-5.7-6c-0.9-0.9-1.1-2.4-0.3-3.4c0.5-0.7,0.9-1.5,1.4-2.3c0.5-0.9,0.9-1.7,1.3-2.5
			c0.4-0.9,0.8-1.7,1.1-2.6c0.3-0.8,0.6-1.7,1-2.7c0.4-1.1,1.4-1.8,2.6-1.8l0,0h9.5c0.5,0,0.9-0.1,1.2-0.2c0.3-0.1,0.7-0.4,1-0.7
			l0,0l0,0c0.3-0.3,0.5-0.6,0.7-1c0.1-0.3,0.2-0.8,0.2-1.2V57c0-0.4-0.1-0.8-0.2-1.1s-0.4-0.7-0.7-1l0,0c-0.3-0.3-0.6-0.5-0.9-0.7
			c-0.3-0.1-0.7-0.2-1.2-0.2H106c-1.3,0-2.5-1-2.7-2.3c-0.2-0.8-0.4-1.7-0.7-2.6c-0.3-0.8-0.6-1.7-0.9-2.6v-0.1
			c-0.3-0.9-0.7-1.7-1-2.5c-0.4-0.8-0.8-1.7-1.2-2.4c-0.6-1.1-0.4-2.3,0.4-3.2l0,0l6.8-6.9c0,0,0,0,0.1-0.1l0,0
			c0.3-0.3,0.5-0.6,0.7-0.9c0.1-0.3,0.2-0.7,0.2-1.1s-0.1-0.8-0.2-1.1c-0.2-0.4-0.4-0.7-0.7-1.1l0,0L98,18.7L98,18.7L98,18.7
			L98,18.7z M99,13c1,0.4,1.9,1,2.7,1.9l0,0l8.4,8.4l0,0c0.8,0.8,1.4,1.7,1.8,2.7s0.7,2.1,0.7,3.2c0,1.2-0.2,2.2-0.7,3.3
			c-0.4,1-1.1,1.9-1.9,2.7l-5.4,5.4c0.2,0.3,0.3,0.7,0.5,1c0.4,0.9,0.8,1.9,1.2,2.8c0,0,0,0.1,0.1,0.1c0.4,0.9,0.7,1.9,1,3
			c0.1,0.3,0.2,0.7,0.3,1h6.7c1.2,0,2.2,0.2,3.3,0.6c1,0.4,1.9,1,2.7,1.8l0.1,0.1c0.8,0.8,1.4,1.7,1.8,2.7s0.6,2.1,0.6,3.2v11.9
			c0,1.1-0.2,2.2-0.6,3.2s-1,1.9-1.8,2.7l0,0l0,0l0,0c-0.8,0.8-1.7,1.4-2.7,1.8s-2.1,0.6-3.2,0.6H107c-0.1,0.4-0.3,0.7-0.4,1.1
			c-0.4,1-0.8,2-1.2,2.9c-0.5,1-0.9,2-1.4,2.9c-0.2,0.3-0.3,0.6-0.5,0.9l4.8,4.7l0.1,0.1c0.8,0.8,1.4,1.7,1.8,2.7s0.6,2.1,0.6,3.2
			s-0.2,2.2-0.6,3.2s-1,1.9-1.7,2.7l0,0l-0.1,0.1l-8.4,8.3c-0.8,0.8-1.7,1.5-2.7,1.9s-2.1,0.7-3.3,0.7c-1.2,0-2.2-0.2-3.3-0.7
			c-1-0.4-1.9-1.1-2.7-1.9l-5.3-5.4c-0.4,0.2-0.7,0.3-1,0.5c-0.9,0.4-1.9,0.8-2.9,1.2c-1,0.4-2,0.7-3,1c-0.3,0.1-0.7,0.2-1,0.3v6.6
			c0,1.2-0.2,2.2-0.6,3.3c-0.4,1-1,1.9-1.8,2.7l-0.1,0.1c-0.8,0.8-1.7,1.4-2.7,1.8s-2.1,0.6-3.2,0.6H54c-2.3,0-4.3-0.8-6-2.5l0,0
			c-0.8-0.8-1.4-1.7-1.8-2.7c-0.4-1-0.6-2.1-0.6-3.2v-7.6c-0.4-0.1-0.7-0.3-1.1-0.4c-1-0.4-2-0.8-2.9-1.2c-1-0.5-2-0.9-2.9-1.4
			c-0.3-0.2-0.6-0.3-0.9-0.5l-4.7,4.8L33,108c-0.8,0.8-1.7,1.4-2.7,1.8s-2.1,0.6-3.2,0.6s-2.2-0.2-3.2-0.6s-1.9-1-2.7-1.7l0,0
			l-0.1-0.1l-8.4-8.5c-0.8-0.8-1.4-1.7-1.8-2.7c-0.4-1-0.7-2.1-0.7-3.2c0-1.2,0.2-2.2,0.7-3.3c0.4-1,1.1-1.9,1.9-2.7l5.4-5.3
			c-0.2-0.4-0.3-0.7-0.5-1.1c-0.4-0.9-0.8-1.9-1.2-2.9c-0.4-1-0.7-2-1.1-3c-0.1-0.4-0.2-0.7-0.3-1H8.4c-1.2,0-2.2-0.2-3.3-0.6
			c-1-0.4-1.9-1-2.7-1.8l-0.1-0.1C1.6,71,1,70.1,0.6,69.1S0,67,0,65.9V54c0-1.1,0.2-2.2,0.6-3.2s1-1.9,1.8-2.7l0,0l0,0l0,0
			c0.8-0.8,1.7-1.4,2.7-1.8c1-0.4,2.1-0.6,3.2-0.6H16c0.1-0.4,0.3-0.7,0.4-1.1c0.4-1,0.8-2,1.2-2.9c0.5-1,0.9-2,1.4-2.9
			c0.2-0.3,0.3-0.6,0.5-0.9l-4.7-4.7l0,0c-0.8-0.8-1.5-1.7-1.9-2.7s-0.7-2.1-0.7-3.2s0.2-2.2,0.6-3.2c0.4-1,1.1-1.9,1.9-2.7l0,0
			l8.4-8.4l0,0c0.8-0.8,1.7-1.4,2.7-1.8c1-0.4,2.1-0.7,3.2-0.7c1.2,0,2.2,0.2,3.3,0.7c1,0.4,1.9,1.1,2.7,1.9l5.4,5.4
			c0.3-0.2,0.7-0.3,1-0.5c0.8-0.4,1.8-0.8,2.8-1.2c0,0,0.1,0,0.1-0.1c1-0.4,2-0.7,3-1.1c0.3-0.1,0.7-0.2,1-0.3V8.4
			c0-1.2,0.2-2.2,0.6-3.2c0.4-1,1-1.9,1.8-2.7l0.1-0.1c0.8-0.8,1.7-1.4,2.7-1.8C54.8,0.2,55.9,0,57,0h11.9c1.1,0,2.2,0.2,3.2,0.6
			s1.9,1,2.7,1.9c0.8,0.8,1.4,1.7,1.8,2.7s0.6,2.1,0.6,3.2V16c0.4,0.1,0.7,0.3,1.1,0.4c1,0.4,2,0.8,2.9,1.2c1,0.5,2,0.9,2.9,1.4
			c0.3,0.2,0.6,0.3,0.9,0.5l4.7-4.7l0,0c0.8-0.8,1.7-1.5,2.7-1.9s2.1-0.7,3.2-0.7C96.9,12.4,98,12.6,99,13L99,13z"/>
	</g>
</g>
<g id="Layer_2">
	<circle class="st1" cx="61.5" cy="61.4" r="24"/>
</g>
</svg>
