<?xml version="1.0" encoding="utf-8"?>
<!-- Generator: Adobe Illustrator 25.4.1, SVG Export Plug-In . SVG Version: 6.00 Build 0)  -->
<svg version="1.1"
	 id="Layer_1" xmlns:inkscape="http://www.inkscape.org/namespaces/inkscape" xmlns:sodipodi="http://sodipodi.sourceforge.net/DTD/sodipodi-0.dtd" xmlns:svg="http://www.w3.org/2000/svg"
	 xmlns="http://www.w3.org/2000/svg" xmlns:xlink="http://www.w3.org/1999/xlink" x="0px" y="0px" viewBox="0 0 122.9 122.9"
	 style="enable-background:new 0 0 122.9 122.9;" xml:space="preserve">
<style type="text/css">
	.st0{fill:#FFFFFF;}
</style>
<sodipodi:namedview  bordercolor="#666666" borderopacity="1.0" id="namedview7" inkscape:current-layer="g4" inkscape:cx="54.120686" inkscape:cy="61.439999" inkscape:pagecheckerboard="true" inkscape:pageopacity="0" inkscape:pageshadow="2" inkscape:window-height="1377" inkscape:window-maximized="1" inkscape:window-width="2560" inkscape:window-x="1432" inkscape:window-y="844" inkscape:zoom="7.1044923" pagecolor="#000000" showgrid="false">
	</sodipodi:namedview>
<g id="g4">
	<path id="path2" class="st0" d="M12.2,9.1h33.3V6.2v0c0-0.1,0-0.2,0-0.3c0.1-1.6,0.8-3,1.8-4.1l0,0C48.4,0.7,50,0,51.7,0l0,0v0h0
		h19.9h0c0.1,0,0.2,0,0.3,0c1.6,0.1,3,0.8,4.1,1.8c1.1,1.1,1.8,2.6,1.8,4.3l0,0h0v0v2.9h32.9h0c0.1,0,0.3,0,0.4,0
		c1.2,0.1,2.3,0.6,3,1.4l0,0l0,0c0.9,0.9,1.4,2,1.4,3.4l0,0h0v0v10.8c0,1.5-1.2,2.7-2.7,2.7h-0.1H10c-1.5,0-2.7-1.2-2.7-2.7v-0.1
		V13.9v0c0-0.1,0-0.2,0-0.3v0c0.1-1.2,0.6-2.3,1.4-3.1l0,0C9.6,9.6,10.8,9.1,12.2,9.1L12.2,9.1L12.2,9.1L12.2,9.1L12.2,9.1z
		 M85.1,49.1h-5.9v56.1h5.9V49.1L85.1,49.1z M65.8,49.1h-5.9v56.1h5.9V49.1L65.8,49.1z M46.4,49.1h-5.9v56.1h5.9V49.1L46.4,49.1z
		 M18.1,31.6h87.4l0.3,0l0.1,0l0.1,0h0l0.2,0c1.4,0.2,2.6,0.8,3.6,1.7c1,1,1.7,2.4,1.7,4c0,0.1,0,0.2,0,0.3l0,0.1l0,0.2l-7.4,79.3
		l0,0h0l0,0.1l-0.1,0.3l0,0l0,0c-0.1,0.3-0.1,0.6-0.2,0.9l0,0l0,0l0,0l0,0.1l0,0c-0.1,0.4-0.3,0.7-0.4,1c-1,1.9-2.9,3.2-5.2,3.2
		H25.4l-0.2,0v0l0,0l0,0c-0.5,0-0.9-0.1-1.3-0.2c-0.4-0.1-0.8-0.3-1.2-0.5l0,0l0,0c-1.8-1-3-2.9-3.2-5l-7.3-79.4l0-0.1l0-0.2l0-0.1
		h0c0-1.6,0.7-2.9,1.7-4c1-1,2.3-1.6,3.8-1.7l0.1,0v0l0.3,0L18.1,31.6L18.1,31.6L18.1,31.6z M105.5,36.9H18.1v0l-0.1,0
		c-0.2,0-0.3,0.1-0.4,0.2c-0.1,0.1-0.1,0.1-0.1,0.2h0l0,0.1l7.3,79.2h0l0,0c0,0.4,0.2,0.7,0.4,0.8l0,0l0.1,0l0.1,0h0.1h72.7
		c0.2,0,0.4-0.2,0.5-0.4l0.1-0.2l0.1-0.2l0-0.1h0l7.4-79.2l0-0.1c0,0,0-0.1-0.1-0.2c-0.1-0.1-0.3-0.2-0.5-0.2L105.5,36.9L105.5,36.9
		z M105.6,36.9L105.6,36.9L105.6,36.9L105.6,36.9z M106.2,37.4L106.2,37.4L106.2,37.4L106.2,37.4z M111.5,37.8L111.5,37.8
		L111.5,37.8L111.5,37.8z M48.2,14.4H12.6v7.7h97.6v-7.7H75.2h-0.1c-1.5,0-2.7-1.2-2.7-2.7V6.2v0h0c0-0.2-0.1-0.4-0.3-0.6
		c-0.1-0.1-0.3-0.2-0.5-0.3h-0.1h0H51.7h0v0c-0.2,0-0.4,0.1-0.6,0.3l0,0l0,0c-0.1,0.1-0.2,0.3-0.3,0.5l0,0.1v0v5.5
		C50.8,13.2,49.7,14.4,48.2,14.4L48.2,14.4z"/>
</g>
</svg>
