<?xml version="1.0" encoding="utf-8"?>
<!-- Generator: Adobe Illustrator 25.4.1, SVG Export Plug-In . SVG Version: 6.00 Build 0)  -->
<svg version="1.1"
	 id="Layer_1" xmlns:inkscape="http://www.inkscape.org/namespaces/inkscape" xmlns:sodipodi="http://sodipodi.sourceforge.net/DTD/sodipodi-0.dtd" xmlns:svg="http://www.w3.org/2000/svg"
	 xmlns="http://www.w3.org/2000/svg" xmlns:xlink="http://www.w3.org/1999/xlink" x="0px" y="0px" viewBox="0 0 122.9 122.9"
	 style="enable-background:new 0 0 122.9 122.9;" xml:space="preserve">
<style type="text/css">
	.st0{fill-rule:evenodd;clip-rule:evenodd;fill:#FFFFFF;}
</style>
<sodipodi:namedview  bordercolor="#666666" borderopacity="1.0" id="namedview27" inkscape:current-layer="g24" inkscape:cx="29.661648" inkscape:cy="47.0572" inkscape:pagecheckerboard="true" inkscape:pageopacity="0" inkscape:pageshadow="2" inkscape:window-height="1377" inkscape:window-maximized="1" inkscape:window-width="2560" inkscape:window-x="1432" inkscape:window-y="844" inkscape:zoom="6.725857" pagecolor="#000000" showgrid="false">
	</sodipodi:namedview>
<g id="g24">
	
		<path id="path22" sodipodi:nodetypes="ccsscccccscccccccsccccccssccccccccccscccccssccccccsccsccsccccccccccccccccccccccccccccccccccccccsscccccscccccssccccccccccccccsccccccsccccccccccccsccccccscccccc" class="st0" d="
		M23.1,81.9L3.7,61.8l9.8,0.1c0.5,0,0.9-0.2,1.2-0.5c0.3-0.3,0.5-0.7,0.5-1.2l0-1.9c0-0.6,0-1.3,0.1-2c0-0.7,0.1-1.3,0.1-2
		c0.1-0.7,0.1-1.3,0.2-2c0.1-0.6,0.2-1.3,0.3-2c0.1-0.7,0.2-1.3,0.4-2c0.1-0.7,0.3-1.3,0.4-1.9c0.2-0.6,0.3-1.3,0.5-1.9
		c0.2-0.6,0.4-1.3,0.6-1.9l0,0c0.2-0.6,0.4-1.3,0.7-1.9l0.5-1.3c0.3-0.8,0.7-1.7,1.1-2.5c0.4-0.8,0.8-1.6,1.2-2.4
		c0.4-0.8,0.8-1.6,1.3-2.4c0.5-0.8,0.9-1.6,1.4-2.3c0.5-0.8,1-1.5,1.6-2.2c0.5-0.7,1.1-1.4,1.7-2.1c0.6-0.7,1.2-1.4,1.8-2.1
		c0.6-0.7,1.2-1.3,1.8-1.9l0.1-0.1c1.2-1.2,2.5-2.4,3.8-3.5c1.3-1.1,2.7-2.1,4.1-3.1c1.4-1,2.9-1.8,4.4-2.6c1.5-0.8,3.1-1.5,4.6-2.2
		c1.5-0.6,3-1.2,4.6-1.6c1.5-0.5,3.1-0.9,4.7-1.2c1.6-0.3,3.2-0.6,4.8-0.7c1.6-0.2,3.2-0.3,4.9-0.3l1.1,0c1.7,0,3.5,0.1,5.2,0.3
		c1.7,0.2,3.4,0.5,5.1,0.8s3.3,0.8,5,1.3c1.6,0.5,3.2,1.1,4.8,1.8c1.6,0.7,3.1,1.4,4.6,2.3c1.5,0.8,2.9,1.7,4.4,2.7
		c1.4,1,2.8,2,4.1,3.1c1.3,1.1,2.5,2.3,3.7,3.5l0.1,0.1c1.2,1.2,2.3,2.5,3.4,3.9c1.1,1.4,2.1,2.8,3,4.2c0.9,1.5,1.8,3,2.6,4.5
		c0.8,1.6,1.5,3.1,2.1,4.7c0.6,1.6,1.2,3.3,1.7,4.9c0.5,1.7,0.9,3.4,1.2,5.1c0.3,1.7,0.6,3.4,0.7,5.2c0.1,1.7,0.2,3.5,0.2,5.2l0,0.3
		c0,1.7-0.1,3.4-0.3,5.1c-0.2,1.7-0.5,3.4-0.8,5.1c-0.4,1.7-0.8,3.3-1.3,5c-0.5,1.6-1.1,3.2-1.7,4.8c-0.7,1.6-1.4,3.1-2.2,4.7
		c-0.8,1.5-1.7,3-2.7,4.4c-1,1.4-2,2.8-3.1,4.1c-1.1,1.3-2.2,2.6-3.4,3.8l-0.1,0.1c-1.5,1.5-3.2,3-4.9,4.3c-1.7,1.3-3.5,2.6-5.3,3.6
		c-1.9,1.1-3.8,2.1-5.7,2.9c-2,0.9-4,1.6-6,2.2c-2.1,0.6-4.1,1.1-6.3,1.5c-2.1,0.4-4.3,0.6-6.4,0.7c-2,0-4.3-0.2-4.4-0.6l0-13.5
		c0.5,0,0.9,0,1.3,0.1c0.5,0,1,0,1.5,0c0.6,0,1.2,0,1.8-0.1c0.6,0,1.2-0.1,1.8-0.2c0.7-0.1,1.4-0.2,2.1-0.3c0.7-0.1,1.4-0.3,2-0.4
		c0.7-0.2,1.3-0.3,2-0.5c0.7-0.2,1.3-0.4,2-0.6l0.7-0.3l0.7-0.3l0.7-0.3c0.6-0.3,1.2-0.5,1.8-0.8c0.1,0,0.2,0,0.2-0.1
		c0.1,0,0.2-0.1,0.3-0.1l1.2-0.6c0.4-0.2,0.8-0.5,1.2-0.7c0.4-0.2,0.8-0.5,1.2-0.7l0.1,0c0.4-0.2,0.7-0.5,1.1-0.8
		c0.4-0.3,0.8-0.5,1.1-0.8l0.7-0.5l0.7-0.6l0.6-0.5l0.5-0.4l0.2-0.1c0.1-0.1,0.2-0.1,0.2-0.2l2.7-2.7c0.1-0.1,0.1-0.1,0.2-0.2
		l0.1-0.2c0.7-0.8,1.3-1.6,2-2.4c0.6-0.8,1.2-1.7,1.8-2.6c0.6-1,1.2-1.9,1.7-2.9c0.5-1,1-2,1.4-3c0.5-1.2,0.9-2.4,1.3-3.6
		c0.4-1.2,0.7-2.5,0.9-3.7c0.3-1.3,0.5-2.5,0.6-3.8c0.1-1.3,0.2-2.6,0.2-3.8l0-0.1c0-1.3-0.1-2.5-0.2-3.8c-0.1-1.2-0.3-2.5-0.5-3.8
		s-0.5-2.5-0.9-3.7c-0.4-1.2-0.8-2.4-1.2-3.6c-0.4-1-0.9-2.1-1.4-3c-0.5-1-1-1.9-1.6-2.9c-0.5-0.9-1.1-1.8-1.7-2.6
		c-0.6-0.8-1.2-1.6-1.9-2.4l-0.1-0.2c-0.1-0.1-0.1-0.2-0.2-0.2l-2.7-2.8c-0.1-0.1-0.1-0.1-0.2-0.2l-0.2-0.1c-0.8-0.7-1.6-1.4-2.3-2
		c-0.8-0.6-1.7-1.3-2.5-1.8c-0.9-0.6-1.9-1.2-2.8-1.7c-1-0.5-2-1-3-1.4c-1.2-0.5-2.3-0.9-3.5-1.3c-1.2-0.4-2.4-0.7-3.7-1
		c-1.2-0.3-2.5-0.5-3.7-0.6c-1.3-0.1-2.5-0.2-3.8-0.2l-0.1,0c-1.3,0-2.5,0-3.7,0.2c-1.2,0.1-2.5,0.3-3.7,0.5s-2.5,0.5-3.7,0.9
		c-1.2,0.4-2.4,0.8-3.6,1.3c-1.2,0.5-2.3,1-3.4,1.6c-1.1,0.6-2.2,1.2-3.2,1.9c-1,0.7-2,1.4-3,2.2c-0.9,0.8-1.9,1.6-2.8,2.5
		c-0.3,0.3-0.7,0.7-1.1,1.1l-0.4,0.4c-0.1,0.1-0.1,0.1-0.2,0.2l-0.1,0.2c-0.5,0.5-0.9,1.1-1.3,1.6c-0.4,0.6-0.9,1.1-1.3,1.7
		c-0.4,0.6-0.9,1.3-1.3,1.9c-0.4,0.7-0.8,1.3-1.2,2c-0.5,0.8-0.9,1.7-1.3,2.5c-0.4,0.9-0.7,1.7-1.1,2.6c-0.3,0.9-0.6,1.8-0.9,2.7
		c-0.3,0.9-0.5,1.8-0.7,2.7l-0.5,2.4c0,0.1,0,0.2,0,0.4c0,0.1,0,0.2,0,0.3c-0.3,2.3-0.3,4.1-0.4,6.4c0,0.5,0.2,0.9,0.5,1.2
		c0.3,0.3,0.7,0.5,1.2,0.5l12.2,0.1L23.1,81.9z"/>
</g>
</svg>
