<?xml version="1.0" encoding="utf-8"?>
<!-- Generator: Adobe Illustrator 25.4.1, SVG Export Plug-In . SVG Version: 6.00 Build 0)  -->
<svg version="1.1" id="Layer_1" xmlns="http://www.w3.org/2000/svg" xmlns:xlink="http://www.w3.org/1999/xlink" x="0px" y="0px"
	 viewBox="0 0 122.9 122.9" style="enable-background:new 0 0 122.9 122.9;" xml:space="preserve">
<style type="text/css">
	.st0{fill:#FFFFFF;}
</style>
<g>
	<path class="st0" d="M35.2,0.7C35.7,0.3,36.4,0,37.1,0c0.1,0,0.3,0,0.4,0.1h47.3c1.6,0,3.2,0.7,4.3,1.8s1.8,2.6,1.8,4.3v27h-5.4
		v-27c0-0.2-0.1-0.3-0.2-0.4c-0.1-0.1-0.2-0.2-0.4-0.2h-45h0v23.8c0,2.3-0.9,4.4-2.4,5.9c-1.5,1.5-3.6,2.4-5.9,2.4H8.2v79.2
		c0,0.2,0.1,0.3,0.2,0.4c0.1,0.1,0.2,0.2,0.4,0.2c24.6,0,52.2,0,76.1,0c0.2,0,0.3-0.1,0.4-0.2c0.1-0.1,0.2-0.3,0.2-0.4v-28h5.4v28
		c0,1.7-0.7,3.2-1.8,4.3s-2.6,1.8-4.3,1.8c-31,0-45.2,0-76.1,0c-1.7,0-3.2-0.7-4.3-1.8s-1.8-2.6-1.8-4.3V35.5c0-0.2-0.1-0.4-0.1-0.7
		c0-0.8,0.4-1.5,0.9-2.1L34.9,0.9C35,0.8,35,0.8,35.2,0.7L35.2,0.7L35.2,0.7z M34.4,29.3v-20L11.9,32.1h19.7c0.8,0,1.5-0.3,2-0.8
		C34,30.8,34.4,30.1,34.4,29.3L34.4,29.3z"/>
</g>
<polyline class="st0" points="85,72 96.2,72 96.2,85.6 120.9,61.4 120.9,61.4 120.9,61.4 96.2,37.3 96.2,50.9 84.8,50.9 "/>
</svg>
