<?xml version="1.0" encoding="utf-8"?>
<!-- Generator: Adobe Illustrator 25.4.1, SVG Export Plug-In . SVG Version: 6.00 Build 0)  -->
<svg version="1.1" id="Layer_1" xmlns="http://www.w3.org/2000/svg" xmlns:xlink="http://www.w3.org/1999/xlink" x="0px" y="0px"
	 viewBox="0 0 122.9 122.9" style="enable-background:new 0 0 122.9 122.9;" xml:space="preserve">
<style type="text/css">
	.st0{fill:#FFFFFF;}
</style>
<g>
	<path class="st0" d="M12,41.2v-7.1l0,0h4.4c1.4,0,2.5-1.1,2.5-2.4V26H40v5.7c0,1.3,1.1,2.4,2.5,2.4h9.2v-4.8H45v-5.7
		c0-1.3-1.1-2.4-2.5-2.4H16.4c-1.4,0-2.5,1.1-2.5,2.4v5.7H9.5c-1.4,0-2.5,1.1-2.5,2.4v9.5c-0.9,0-4.5-0.3-5.7,0.3
		c-0.9,0.4-1.4,1.3-1.3,2.3l6.7,61.5c0.2,2,1.1,3.9,2.5,5.3c1.4,1.3,3.3,2.2,5.4,2.2h91.5c2.1,0,4-0.8,5.4-2.1
		c1.4-1.3,2.3-3.2,2.6-5.2l8.7-61.3c0-0.2,0.1-0.3,0.1-0.5c0-1.3-1.1-2.4-2.5-2.4h-4.5v-9.5c0-1.3-1.1-2.4-2.5-2.4h-7.3v4.8h4.8v6.1
		 M69.4,46L69.4,46h21.2l0,0h27.1l-8.3,58.8c-0.1,1-0.6,1.9-1.2,2.4c-0.5,0.5-1.1,0.8-1.9,0.8H14.7c-0.8,0-1.4-0.3-1.9-0.8
		c-0.6-0.6-1-1.4-1.1-2.4L5.2,46H69.4L69.4,46z"/>
</g>
<polyline class="st0" points="89.8,36.6 89.8,25.3 103.3,25.3 79.2,0.6 79.2,0.6 79.2,0.6 55.1,25.3 68.6,25.3 68.6,36.7 "/>
</svg>
