<?xml version="1.0" encoding="utf-8"?>
<!-- Generator: Adobe Illustrator 25.4.1, SVG Export Plug-In . SVG Version: 6.00 Build 0)  -->
<svg version="1.1"
	 id="Layer_1" xmlns:inkscape="http://www.inkscape.org/namespaces/inkscape" xmlns:sodipodi="http://sodipodi.sourceforge.net/DTD/sodipodi-0.dtd" xmlns:svg="http://www.w3.org/2000/svg"
	 xmlns="http://www.w3.org/2000/svg" xmlns:xlink="http://www.w3.org/1999/xlink" x="0px" y="0px" viewBox="0 0 122.9 122.9"
	 style="enable-background:new 0 0 122.9 122.9;" xml:space="preserve">
<style type="text/css">
	.st0{fill:#FFFFFF;}
	.st1{fill:#B3B3B3;}
</style>
<sodipodi:namedview  bordercolor="#666666" borderopacity="1.0" id="namedview9" inkscape:current-layer="g6" inkscape:cx="52.531486" inkscape:cy="44.944882" inkscape:pagecheckerboard="true" inkscape:pageopacity="0" inkscape:pageshadow="2" inkscape:window-height="1377" inkscape:window-maximized="1" inkscape:window-width="2560" inkscape:window-x="1432" inkscape:window-y="844" inkscape:zoom="4.3497722" pagecolor="#000000" showgrid="false">
	</sodipodi:namedview>
<g id="g6">
	<path id="path2754" class="st0" d="M30.4,47.4h90.9c1.3,0,1.9,1.1,1.3,2.3l-23.8,50.5c-0.6,1.3-2.1,2.3-3.3,2.3H4.7
		c-1.3,0-1.9-1.1-1.3-2.3l23.8-50.5C27.7,48.4,29.1,47.4,30.4,47.4z"/>
	<path id="path4" class="st1" d="M2.3,33.2l2.1,0v-1.5c0-6.2,0.3-11.4,6.6-11.4l20.8,0c6.2,0,6.7,5.1,6.7,11.4v1.5l57.5,0
		c1.3,0,2.3,1,2.3,2.3V43H28.1c-1.3,0-2.8,1-3.5,2.3l-22.7,47C0.8,92.2,0,91.3,0,90.2V35.5C0,34.2,1,33.2,2.3,33.2z"/>
</g>
</svg>
