<?xml version="1.0" encoding="utf-8"?>
<!-- Generator: Adobe Illustrator 25.4.1, SVG Export Plug-In . SVG Version: 6.00 Build 0)  -->
<svg version="1.1"
	 id="Layer_1" xmlns:inkscape="http://www.inkscape.org/namespaces/inkscape" xmlns:sodipodi="http://sodipodi.sourceforge.net/DTD/sodipodi-0.dtd" xmlns:svg="http://www.w3.org/2000/svg"
	 xmlns="http://www.w3.org/2000/svg" xmlns:xlink="http://www.w3.org/1999/xlink" x="0px" y="0px" viewBox="0 0 122.9 122.9"
	 style="enable-background:new 0 0 122.9 122.9;" xml:space="preserve">
<style type="text/css">
	.st0{fill:#FFFFFF;}
	.st1{fill:#CCCCCC;}
</style>
<sodipodi:namedview  bordercolor="#666666" borderopacity="1.0" id="namedview7" inkscape:current-layer="layer2" inkscape:cx="66.84258" inkscape:cy="50.634835" inkscape:pagecheckerboard="true" inkscape:pageopacity="1" inkscape:pageshadow="2" inkscape:window-height="1377" inkscape:window-maximized="1" inkscape:window-width="2560" inkscape:window-x="1432" inkscape:window-y="844" inkscape:zoom="8.6995445" pagecolor="#000000" showgrid="false">
	</sodipodi:namedview>
<g id="g4">
</g>
<path id="path2" sodipodi:nodetypes="cscssccsscsssscccccc" class="st0" d="M116.7,15.8H6.2c-1.7,0-3.2,0.7-4.4,1.8
	C0.7,18.7,0,20.3,0,22v78.9c0,1.7,0.7,3.2,1.8,4.4c0.1,0.1,0.2,0.2,0.3,0.3c1.1,1,2.5,1.5,4.1,1.5h110.5c1.7,0,3.2-0.7,4.4-1.8
	c1.1-1.1,1.8-2.7,1.8-4.4V22c0-1.7-0.7-3.2-1.8-4.4C120,16.5,118.4,15.8,116.7,15.8L116.7,15.8z M7.3,23.2h108.1v76.5H7.3V23.2z"/>
<g id="layer1" inkscape:groupmode="layer" inkscape:label="Layer 1">
	<path id="path2946" class="st1" d="M91.3,35.1c-4.9,0-8.9,4-8.9,8.9c0,4.9,4,8.9,8.9,8.9s8.9-4,8.9-8.9
		C100.1,39.1,96.2,35.1,91.3,35.1z"/>
</g>
<g id="layer2" inkscape:groupmode="layer" inkscape:label="Layer 2">
	<path id="path3200" class="st1" d="M54,75.2L36.3,44.5L17.4,92.2h87.9v-5.9L98,85.9l-7.4-18.1l-3.7,12.9H75.8L66.2,56L54,75.2z"/>
</g>
</svg>
