<?xml version="1.0" encoding="utf-8"?>
<!-- Generator: Adobe Illustrator 25.4.1, SVG Export Plug-In . SVG Version: 6.00 Build 0)  -->
<svg version="1.1"
	 id="Layer_1" xmlns:inkscape="http://www.inkscape.org/namespaces/inkscape" xmlns:sodipodi="http://sodipodi.sourceforge.net/DTD/sodipodi-0.dtd" xmlns:svg="http://www.w3.org/2000/svg"
	 xmlns="http://www.w3.org/2000/svg" xmlns:xlink="http://www.w3.org/1999/xlink" x="0px" y="0px" viewBox="0 0 122.9 122.9"
	 style="enable-background:new 0 0 122.9 122.9;" xml:space="preserve">
<style type="text/css">
	.st0{fill:#C7C8CA;}
</style>
<sodipodi:namedview  bordercolor="#666666" borderopacity="1.0" id="namedview7" inkscape:current-layer="Layer_1" inkscape:cx="61.439499" inkscape:cy="39.829348" inkscape:pagecheckerboard="0" inkscape:pageopacity="0" inkscape:pageshadow="2" inkscape:window-height="1377" inkscape:window-maximized="1" inkscape:window-width="2560" inkscape:window-x="1432" inkscape:window-y="844" inkscape:zoom="8.6996152" pagecolor="#000000" showgrid="false">
	</sodipodi:namedview>
<g id="g4">
	<path id="path2" class="st0" d="M1,58.9c2.9-3.5,6-6.7,9.2-9.6c14.3-13,31.4-20,48.9-20.4c6.6-0.1,13.2,0.7,19.8,2.4L73,37.2
		c-4.6-0.9-9.2-1.3-13.7-1.2C43.5,36.3,28.1,42.7,15,54.5l0,0c-2.3,2.1-4.6,4.4-6.7,6.8c4.1,4.7,8.6,8.8,13.5,12.2
		c3,2.1,6.1,4,9.3,5.6l-5.3,5.3c-2.8-1.5-5.5-3.2-8.1-5c-6.1-4.3-11.8-9.6-16.8-15.9C-0.3,62.2-0.2,60.2,1,58.9L1,58.9L1,58.9z
		 M96,21.6l5.9,5.9l-73.8,73.8l-5.9-5.9L96,21.6L96,21.6z M97.7,39.2c4.4,2.5,8.8,5.5,13,9c3.9,3.2,7.6,6.8,11.2,10.7
		c1.2,1.3,1.2,3.2,0.2,4.5c-4.1,5.8-8.9,10.8-14.1,15C95.1,88.8,79.3,93.9,63.4,94c-6.1,0-9.8-3.1-15.8-4.6l3.5-3.5
		c4.1,0.7,8.2,1,12.3,1c14.4-0.1,28.7-4.7,40.4-14c4-3.2,7.7-6.9,11-11.3c-2.8-2.9-5.6-5.5-8.5-7.9c-4.5-3.7-9-6.8-13.7-9.3
		L97.7,39.2L97.7,39.2z M61.4,39.7c2.7,0,5.2,0.5,7.6,1.4l-5.7,5.7c-0.6-0.1-1.2-0.1-1.9-0.1c-4.1,0-7.8,1.7-10.4,4.3
		s-4.3,6.4-4.3,10.5c0,0.6,0,1.3,0.1,1.9L41.1,69c-0.9-2.4-1.4-4.9-1.4-7.6c0-6,2.4-11.4,6.4-15.3C50,42.2,55.4,39.7,61.4,39.7
		L61.4,39.7z M82.1,54.8c0.7,2.1,1,4.3,1,6.6c0,6-2.4,11.4-6.4,15.3c-3.9,3.9-9.4,6.4-15.3,6.4c-2.3,0-4.5-0.4-6.6-1l5.9-5.9
		c0.2,0,0.5,0,0.7,0c4.1,0,7.8-1.7,10.4-4.3c2.7-2.7,4.3-6.4,4.3-10.4c0-0.2,0-0.5,0-0.7L82.1,54.8L82.1,54.8z"/>
</g>
</svg>
