<?xml version="1.0" encoding="utf-8"?>
<!-- Generator: Adobe Illustrator 25.4.1, SVG Export Plug-In . SVG Version: 6.00 Build 0)  -->
<svg version="1.1"
	 id="Layer_1" xmlns:inkscape="http://www.inkscape.org/namespaces/inkscape" xmlns:sodipodi="http://sodipodi.sourceforge.net/DTD/sodipodi-0.dtd" xmlns:svg="http://www.w3.org/2000/svg"
	 xmlns="http://www.w3.org/2000/svg" xmlns:xlink="http://www.w3.org/1999/xlink" x="0px" y="0px" viewBox="0 0 122.9 122.9"
	 style="enable-background:new 0 0 122.9 122.9;" xml:space="preserve">
<style type="text/css">
	.st0{fill-rule:evenodd;clip-rule:evenodd;fill:#BCBEC0;}
	.st1{fill:none;stroke:#BCBEC0;stroke-width:8.4056;stroke-miterlimit:10;}
</style>
<sodipodi:namedview  bordercolor="#666666" borderopacity="1.0" id="namedview7" inkscape:current-layer="g4" inkscape:cx="48.068178" inkscape:cy="61.439999" inkscape:pagecheckerboard="true" inkscape:pageopacity="0" inkscape:pageshadow="2" inkscape:window-height="1377" inkscape:window-maximized="1" inkscape:window-width="2560" inkscape:window-x="1432" inkscape:window-y="844" inkscape:zoom="7.1044923" pagecolor="#000000" showgrid="false">
	</sodipodi:namedview>
<g id="g4">
	<path id="path2" class="st0" d="M88.8,57.2h5.1c1.2,0,2,1,2,2.3v49.8c0,1.3-0.9,2.3-2,2.3H29.9c-1.2,0-2-1-2-2.3V59.6
		c-0.1-1.3,0.9-2.4,2-2.4l0,0h6.3 M46.6,57.1L46.6,57.1h32.1 M63,83l4.2,17.8l-11.5,0.1l3.4-18c-3.1-1-5.3-3.7-5.3-6.8
		c0-4,3.5-7.1,7.8-7.1s7.8,3.2,7.8,7.1C69.1,79.4,66.5,82.4,63,83L63,83z"/>
</g>
<path class="st1" d="M118.1,57.2c0-13.5-6.2-27.2-18.5-27.2"/>
<path class="st1" d="M81.2,57.2c0-13.5,6.2-27.2,18.5-27.2"/>
</svg>
