<?xml version="1.0" encoding="utf-8"?>
<!-- Generator: Adobe Illustrator 25.4.1, SVG Export Plug-In . SVG Version: 6.00 Build 0)  -->
<svg version="1.1"
	 id="Layer_1" xmlns:cc="http://creativecommons.org/ns#" xmlns:dc="http://purl.org/dc/elements/1.1/" xmlns:inkscape="http://www.inkscape.org/namespaces/inkscape" xmlns:rdf="http://www.w3.org/1999/02/22-rdf-syntax-ns#" xmlns:sodipodi="http://sodipodi.sourceforge.net/DTD/sodipodi-0.dtd" xmlns:svg="http://www.w3.org/2000/svg"
	 xmlns="http://www.w3.org/2000/svg" xmlns:xlink="http://www.w3.org/1999/xlink" x="0px" y="0px" viewBox="0 0 122.9 122.9"
	 style="enable-background:new 0 0 122.9 122.9;" xml:space="preserve">
<style type="text/css">
	.st0{fill-rule:evenodd;clip-rule:evenodd;fill:#FFFFFF;}
	.st1{fill-rule:evenodd;clip-rule:evenodd;fill:#CCCCCC;}
</style>
<sodipodi:namedview  bordercolor="#666666" borderopacity="1.0" id="namedview3390" inkscape:current-layer="layer1" inkscape:cx="73.279699" inkscape:cy="34.082244" inkscape:pagecheckerboard="true" inkscape:pageopacity="0" inkscape:pageshadow="2" inkscape:window-height="1377" inkscape:window-maximized="1" inkscape:window-width="2560" inkscape:window-x="1432" inkscape:window-y="844" inkscape:zoom="8.6995445" pagecolor="#000000" showgrid="false">
	</sodipodi:namedview>
<path id="path3387" sodipodi:nodetypes="ccscccccccccccccccscc" class="st0" d="M1,58.7c3.2-3.9,6.6-7.5,10.3-10.9
	C25.7,34.7,42.1,27.7,59,27.4c16.9-0.4,34.1,5.9,50.3,19.3c4.5,3.7,8.7,7.7,12.5,12c1.2,1.4,1.3,3.5,0.2,5
	c-4.3,6.2-9.5,11.7-15.4,16.4C94.5,90,79.2,95.4,63.4,95.5c-15.9,0-31.4-5.1-44.3-14.4C12.3,76.3,6.1,70.4,0.9,63.8
	C-0.4,62.3-0.3,60.1,1,58.7z M16.7,53.7c-2.7,2.4-5.2,5-7.6,7.7c4.3,5,9.2,9.5,14.6,13.4c11.6,8.3,25.4,12.9,39.7,12.9
	c14-0.1,27.5-4.9,38.4-13.7c4.5-3.6,8.5-7.7,12-12.3c-3-3.1-6.2-6.1-9.5-8.9C89.6,40.6,74.1,34.9,59.1,35.2
	C44.1,35.5,29.6,41.8,16.7,53.7L16.7,53.7z"/>
<g id="layer1" inkscape:groupmode="layer" inkscape:label="Layer 1">
	<path id="path868" class="st1" d="M60.9,41.4c9.7,0,18.1,6.8,20,16.3c1.9,9.5-3.1,19-12.1,22.8S49.5,81,44.1,73
		c-5.4-8-4.4-18.8,2.4-25.7C50.4,43.5,55.5,41.4,60.9,41.4z M55.8,46.1c7,0,10.5,8.5,5.6,13.4S48,60.9,48,53.9
		C48,49.6,51.5,46.1,55.8,46.1z"/>
</g>
</svg>
